<svg xmlns="http://www.w3.org/2000/svg" xmlns:xlink="http://www.w3.org/1999/xlink" width="300" zoomAndPan="magnify" viewBox="0 0 224.87999 37.5" height="50" preserveAspectRatio="xMidYMid meet" version="1.0"><defs><g/></defs><g fill="#ffcf00" fill-opacity="1"><g transform="translate(2.831134, 33.454021)"><g><path d="M 11.1875 -20.421875 C 11.1875 -20.023438 11.25 -19.695312 11.375 -19.4375 C 11.5 -19.175781 11.65625 -18.953125 11.84375 -18.765625 C 12.039062 -18.585938 12.25 -18.441406 12.46875 -18.328125 C 12.6875 -18.210938 12.890625 -18.09375 13.078125 -17.96875 C 13.273438 -17.84375 13.4375 -17.695312 13.5625 -17.53125 C 13.6875 -17.375 13.75 -17.164062 13.75 -16.90625 C 13.75 -16.476562 13.597656 -16.148438 13.296875 -15.921875 C 12.992188 -15.703125 12.648438 -15.59375 12.265625 -15.59375 C 11.890625 -15.59375 11.539062 -15.707031 11.21875 -15.9375 C 10.90625 -16.164062 10.628906 -16.476562 10.390625 -16.875 C 10.160156 -17.28125 9.972656 -17.75 9.828125 -18.28125 C 9.691406 -18.820312 9.625 -19.394531 9.625 -20 C 9.625 -20.738281 9.738281 -21.445312 9.96875 -22.125 C 10.195312 -22.800781 10.535156 -23.394531 10.984375 -23.90625 C 11.441406 -24.414062 12.003906 -24.820312 12.671875 -25.125 C 13.335938 -25.425781 14.097656 -25.578125 14.953125 -25.578125 C 15.523438 -25.578125 16.148438 -25.476562 16.828125 -25.28125 C 17.515625 -25.09375 18.195312 -24.789062 18.875 -24.375 C 19.550781 -23.96875 20.203125 -23.429688 20.828125 -22.765625 C 21.460938 -22.109375 22.023438 -21.304688 22.515625 -20.359375 C 23.003906 -19.410156 23.394531 -18.3125 23.6875 -17.0625 C 23.976562 -15.8125 24.125 -14.394531 24.125 -12.8125 C 24.125 -10.769531 23.816406 -8.9375 23.203125 -7.3125 C 22.597656 -5.695312 21.78125 -4.328125 20.75 -3.203125 C 19.71875 -2.078125 18.519531 -1.210938 17.15625 -0.609375 C 15.789062 -0.015625 14.34375 0.28125 12.8125 0.28125 C 11.300781 0.28125 9.859375 0.0195312 8.484375 -0.5 C 7.109375 -1.019531 5.894531 -1.8125 4.84375 -2.875 C 3.800781 -3.945312 2.96875 -5.304688 2.34375 -6.953125 C 1.726562 -8.609375 1.421875 -10.5625 1.421875 -12.8125 C 1.421875 -14.5625 1.65625 -16.148438 2.125 -17.578125 C 2.59375 -19.015625 3.222656 -20.285156 4.015625 -21.390625 C 4.804688 -22.503906 5.726562 -23.441406 6.78125 -24.203125 C 7.832031 -24.960938 8.945312 -25.535156 10.125 -25.921875 L 10.71875 -25.1875 C 10.382812 -24.84375 10.070312 -24.492188 9.78125 -24.140625 C 9.488281 -23.785156 9.222656 -23.378906 8.984375 -22.921875 C 8.742188 -22.460938 8.523438 -21.9375 8.328125 -21.34375 C 8.140625 -20.75 7.984375 -20.046875 7.859375 -19.234375 C 7.734375 -18.429688 7.632812 -17.503906 7.5625 -16.453125 C 7.488281 -15.398438 7.453125 -14.1875 7.453125 -12.8125 C 7.453125 -11.03125 7.546875 -9.507812 7.734375 -8.25 C 7.929688 -6.988281 8.179688 -5.929688 8.484375 -5.078125 C 8.796875 -4.234375 9.144531 -3.5625 9.53125 -3.0625 C 9.914062 -2.5625 10.304688 -2.179688 10.703125 -1.921875 C 11.097656 -1.671875 11.476562 -1.503906 11.84375 -1.421875 C 12.21875 -1.347656 12.539062 -1.3125 12.8125 -1.3125 C 13.09375 -1.3125 13.414062 -1.347656 13.78125 -1.421875 C 14.144531 -1.503906 14.519531 -1.671875 14.90625 -1.921875 C 15.289062 -2.179688 15.671875 -2.5625 16.046875 -3.0625 C 16.429688 -3.5625 16.769531 -4.234375 17.0625 -5.078125 C 17.363281 -5.929688 17.601562 -6.988281 17.78125 -8.25 C 17.96875 -9.507812 18.0625 -11.03125 18.0625 -12.8125 C 18.0625 -14.375 17.992188 -15.734375 17.859375 -16.890625 C 17.722656 -18.046875 17.539062 -19.035156 17.3125 -19.859375 C 17.09375 -20.679688 16.832031 -21.351562 16.53125 -21.875 C 16.238281 -22.40625 15.929688 -22.820312 15.609375 -23.125 C 15.296875 -23.425781 14.976562 -23.632812 14.65625 -23.75 C 14.34375 -23.875 14.050781 -23.9375 13.78125 -23.9375 C 13.363281 -23.9375 12.992188 -23.835938 12.671875 -23.640625 C 12.347656 -23.441406 12.078125 -23.175781 11.859375 -22.84375 C 11.640625 -22.519531 11.472656 -22.144531 11.359375 -21.71875 C 11.242188 -21.300781 11.1875 -20.867188 11.1875 -20.421875 Z M 11.1875 -20.421875 "/></g></g></g><g fill="#ffcf00" fill-opacity="1"><g transform="translate(28.374707, 33.454021)"><g><path d="M 16.984375 -1.53125 C 16.984375 -1.375 16.957031 -1.191406 16.90625 -0.984375 C 16.863281 -0.773438 16.75 -0.578125 16.5625 -0.390625 C 16.382812 -0.210938 16.113281 -0.0546875 15.75 0.078125 C 15.394531 0.210938 14.914062 0.28125 14.3125 0.28125 C 13.695312 0.28125 13.210938 0.207031 12.859375 0.0625 C 12.503906 -0.0820312 12.238281 -0.253906 12.0625 -0.453125 C 11.882812 -0.648438 11.769531 -0.851562 11.71875 -1.0625 C 11.675781 -1.269531 11.65625 -1.4375 11.65625 -1.5625 L 11.65625 -13.828125 C 11.65625 -13.984375 11.628906 -14.144531 11.578125 -14.3125 C 11.535156 -14.476562 11.46875 -14.628906 11.375 -14.765625 C 11.28125 -14.910156 11.164062 -15.023438 11.03125 -15.109375 C 10.894531 -15.203125 10.734375 -15.25 10.546875 -15.25 C 10.234375 -15.25 9.925781 -15.15625 9.625 -14.96875 C 9.320312 -14.789062 9.039062 -14.585938 8.78125 -14.359375 C 8.519531 -14.128906 8.296875 -13.894531 8.109375 -13.65625 C 7.921875 -13.425781 7.785156 -13.253906 7.703125 -13.140625 L 7.703125 -1.53125 C 7.703125 -1.375 7.675781 -1.191406 7.625 -0.984375 C 7.582031 -0.773438 7.46875 -0.578125 7.28125 -0.390625 C 7.101562 -0.210938 6.835938 -0.0546875 6.484375 0.078125 C 6.140625 0.210938 5.660156 0.28125 5.046875 0.28125 C 4.429688 0.28125 3.945312 0.207031 3.59375 0.0625 C 3.238281 -0.0820312 2.96875 -0.253906 2.78125 -0.453125 C 2.601562 -0.648438 2.488281 -0.851562 2.4375 -1.0625 C 2.394531 -1.269531 2.375 -1.4375 2.375 -1.5625 L 2.375 -14.953125 C 2.375 -15.285156 2.296875 -15.578125 2.140625 -15.828125 C 1.984375 -16.078125 1.722656 -16.203125 1.359375 -16.203125 C 1.160156 -16.203125 0.988281 -16.164062 0.84375 -16.09375 C 0.707031 -16.019531 0.5625 -15.921875 0.40625 -15.796875 L 0.03125 -16.234375 C 0.300781 -16.453125 0.597656 -16.664062 0.921875 -16.875 C 1.253906 -17.09375 1.609375 -17.28125 1.984375 -17.4375 C 2.367188 -17.601562 2.78125 -17.738281 3.21875 -17.84375 C 3.664062 -17.945312 4.128906 -18 4.609375 -18 C 5.359375 -18 5.941406 -17.875 6.359375 -17.625 C 6.773438 -17.375 7.082031 -17.078125 7.28125 -16.734375 C 7.476562 -16.390625 7.597656 -16.03125 7.640625 -15.65625 C 7.679688 -15.28125 7.703125 -14.960938 7.703125 -14.703125 C 8.242188 -15.316406 8.828125 -15.867188 9.453125 -16.359375 C 9.703125 -16.566406 9.976562 -16.765625 10.28125 -16.953125 C 10.59375 -17.148438 10.910156 -17.328125 11.234375 -17.484375 C 11.554688 -17.640625 11.890625 -17.765625 12.234375 -17.859375 C 12.585938 -17.953125 12.9375 -18 13.28125 -18 C 13.957031 -18 14.53125 -17.875 15 -17.625 C 15.476562 -17.382812 15.859375 -17.09375 16.140625 -16.75 C 16.429688 -16.414062 16.644531 -16.0625 16.78125 -15.6875 C 16.914062 -15.3125 16.984375 -14.984375 16.984375 -14.703125 C 17.535156 -15.316406 18.117188 -15.867188 18.734375 -16.359375 C 18.984375 -16.566406 19.257812 -16.765625 19.5625 -16.953125 C 19.863281 -17.148438 20.175781 -17.328125 20.5 -17.484375 C 20.832031 -17.640625 21.171875 -17.765625 21.515625 -17.859375 C 21.859375 -17.953125 22.203125 -18 22.546875 -18 C 23.210938 -18 23.78125 -17.875 24.25 -17.625 C 24.726562 -17.375 25.113281 -17.046875 25.40625 -16.640625 C 25.695312 -16.242188 25.90625 -15.789062 26.03125 -15.28125 C 26.164062 -14.769531 26.234375 -14.257812 26.234375 -13.75 L 26.234375 -3.015625 C 26.234375 -2.910156 26.238281 -2.796875 26.25 -2.671875 C 26.257812 -2.554688 26.285156 -2.441406 26.328125 -2.328125 C 26.378906 -2.222656 26.453125 -2.132812 26.546875 -2.0625 C 26.648438 -1.988281 26.785156 -1.953125 26.953125 -1.953125 C 27.171875 -1.953125 27.363281 -2.03125 27.53125 -2.1875 C 27.707031 -2.34375 27.875 -2.503906 28.03125 -2.671875 L 28.4375 -2.3125 C 28.28125 -2.0625 28.066406 -1.789062 27.796875 -1.5 C 27.535156 -1.207031 27.222656 -0.925781 26.859375 -0.65625 C 26.492188 -0.394531 26.070312 -0.175781 25.59375 0 C 25.113281 0.1875 24.570312 0.28125 23.96875 0.28125 C 23.457031 0.28125 23.015625 0.210938 22.640625 0.078125 C 22.265625 -0.0546875 21.945312 -0.234375 21.6875 -0.453125 C 21.425781 -0.679688 21.226562 -0.945312 21.09375 -1.25 C 20.96875 -1.5625 20.90625 -1.890625 20.90625 -2.234375 L 20.90625 -13.828125 C 20.90625 -13.984375 20.882812 -14.144531 20.84375 -14.3125 C 20.800781 -14.476562 20.734375 -14.628906 20.640625 -14.765625 C 20.554688 -14.910156 20.441406 -15.023438 20.296875 -15.109375 C 20.160156 -15.203125 20.003906 -15.25 19.828125 -15.25 C 19.515625 -15.25 19.203125 -15.15625 18.890625 -14.96875 C 18.585938 -14.789062 18.304688 -14.585938 18.046875 -14.359375 C 17.785156 -14.128906 17.5625 -13.894531 17.375 -13.65625 C 17.1875 -13.425781 17.054688 -13.253906 16.984375 -13.140625 Z M 16.984375 -1.53125 "/></g></g></g><g fill="#ffcf00" fill-opacity="1"><g transform="translate(57.005012, 33.454021)"><g><path d="M 9.96875 -8.984375 C 9.96875 -9.273438 9.875 -9.492188 9.6875 -9.640625 C 9.507812 -9.796875 9.273438 -9.875 8.984375 -9.875 C 8.578125 -9.875 8.191406 -9.78125 7.828125 -9.59375 C 7.460938 -9.40625 7.140625 -9.128906 6.859375 -8.765625 C 6.585938 -8.410156 6.367188 -7.96875 6.203125 -7.4375 C 6.046875 -6.914062 5.96875 -6.3125 5.96875 -5.625 C 5.96875 -4.945312 6.015625 -4.390625 6.109375 -3.953125 C 6.210938 -3.515625 6.347656 -3.164062 6.515625 -2.90625 C 6.679688 -2.644531 6.875 -2.460938 7.09375 -2.359375 C 7.3125 -2.253906 7.539062 -2.203125 7.78125 -2.203125 C 8.082031 -2.203125 8.363281 -2.28125 8.625 -2.4375 C 8.894531 -2.59375 9.128906 -2.789062 9.328125 -3.03125 C 9.523438 -3.28125 9.679688 -3.550781 9.796875 -3.84375 C 9.910156 -4.144531 9.96875 -4.445312 9.96875 -4.75 Z M 7.21875 -16.578125 C 6.820312 -16.578125 6.457031 -16.53125 6.125 -16.4375 C 5.789062 -16.34375 5.5 -16.226562 5.25 -16.09375 C 5.007812 -15.957031 4.816406 -15.800781 4.671875 -15.625 C 4.535156 -15.457031 4.46875 -15.300781 4.46875 -15.15625 C 4.46875 -14.976562 4.554688 -14.851562 4.734375 -14.78125 C 4.921875 -14.707031 5.125 -14.617188 5.34375 -14.515625 C 5.5625 -14.421875 5.757812 -14.285156 5.9375 -14.109375 C 6.113281 -13.929688 6.203125 -13.65625 6.203125 -13.28125 C 6.203125 -13.039062 6.148438 -12.816406 6.046875 -12.609375 C 5.953125 -12.410156 5.820312 -12.234375 5.65625 -12.078125 C 5.488281 -11.921875 5.289062 -11.796875 5.0625 -11.703125 C 4.84375 -11.617188 4.613281 -11.578125 4.375 -11.578125 C 3.726562 -11.578125 3.203125 -11.796875 2.796875 -12.234375 C 2.398438 -12.679688 2.203125 -13.269531 2.203125 -14 C 2.203125 -14.695312 2.382812 -15.296875 2.75 -15.796875 C 3.125 -16.304688 3.609375 -16.722656 4.203125 -17.046875 C 4.796875 -17.367188 5.46875 -17.609375 6.21875 -17.765625 C 6.976562 -17.921875 7.734375 -18 8.484375 -18 C 9.378906 -18 10.238281 -17.898438 11.0625 -17.703125 C 11.882812 -17.503906 12.609375 -17.191406 13.234375 -16.765625 C 13.867188 -16.335938 14.375 -15.796875 14.75 -15.140625 C 15.125 -14.484375 15.3125 -13.6875 15.3125 -12.75 L 15.3125 -2.953125 C 15.3125 -2.847656 15.316406 -2.726562 15.328125 -2.59375 C 15.335938 -2.46875 15.363281 -2.351562 15.40625 -2.25 C 15.457031 -2.144531 15.53125 -2.054688 15.625 -1.984375 C 15.71875 -1.921875 15.851562 -1.890625 16.03125 -1.890625 C 16.226562 -1.890625 16.414062 -1.96875 16.59375 -2.125 C 16.78125 -2.28125 16.941406 -2.4375 17.078125 -2.59375 L 17.515625 -2.234375 C 17.335938 -1.992188 17.128906 -1.726562 16.890625 -1.4375 C 16.648438 -1.144531 16.351562 -0.875 16 -0.625 C 15.65625 -0.375 15.25 -0.160156 14.78125 0.015625 C 14.320312 0.191406 13.800781 0.28125 13.21875 0.28125 C 12.488281 0.28125 11.835938 0.0664062 11.265625 -0.359375 C 10.703125 -0.796875 10.332031 -1.46875 10.15625 -2.375 C 9.789062 -1.875 9.40625 -1.457031 9 -1.125 C 8.601562 -0.789062 8.195312 -0.519531 7.78125 -0.3125 C 7.363281 -0.101562 6.941406 0.046875 6.515625 0.140625 C 6.097656 0.234375 5.675781 0.28125 5.25 0.28125 C 4.695312 0.28125 4.160156 0.191406 3.640625 0.015625 C 3.117188 -0.160156 2.648438 -0.4375 2.234375 -0.8125 C 1.828125 -1.1875 1.5 -1.671875 1.25 -2.265625 C 1.007812 -2.867188 0.890625 -3.601562 0.890625 -4.46875 C 0.890625 -5.519531 1.097656 -6.378906 1.515625 -7.046875 C 1.929688 -7.722656 2.472656 -8.289062 3.140625 -8.75 C 3.816406 -9.207031 4.585938 -9.597656 5.453125 -9.921875 C 6.316406 -10.242188 7.195312 -10.582031 8.09375 -10.9375 C 8.769531 -11.207031 9.257812 -11.601562 9.5625 -12.125 C 9.875 -12.65625 10.03125 -13.195312 10.03125 -13.75 C 10.03125 -14.601562 9.773438 -15.285156 9.265625 -15.796875 C 8.765625 -16.316406 8.082031 -16.578125 7.21875 -16.578125 Z M 7.21875 -16.578125 "/></g></g></g><g fill="#ffcf00" fill-opacity="1"><g transform="translate(74.693022, 33.454021)"><g><path d="M 7.703125 -14.34375 C 8.140625 -15.007812 8.609375 -15.613281 9.109375 -16.15625 C 9.316406 -16.394531 9.539062 -16.625 9.78125 -16.84375 C 10.019531 -17.0625 10.269531 -17.253906 10.53125 -17.421875 C 10.789062 -17.597656 11.054688 -17.738281 11.328125 -17.84375 C 11.609375 -17.945312 11.890625 -18 12.171875 -18 C 12.765625 -18 13.226562 -17.820312 13.5625 -17.46875 C 13.894531 -17.113281 14.0625 -16.617188 14.0625 -15.984375 C 14.0625 -15.597656 14.03125 -15.222656 13.96875 -14.859375 C 13.90625 -14.492188 13.78125 -14.050781 13.59375 -13.53125 L 13.109375 -13.53125 C 13.035156 -13.882812 12.875 -14.179688 12.625 -14.421875 C 12.375 -14.660156 12.003906 -14.78125 11.515625 -14.78125 C 11.160156 -14.78125 10.804688 -14.710938 10.453125 -14.578125 C 10.109375 -14.441406 9.769531 -14.273438 9.4375 -14.078125 C 9.113281 -13.878906 8.800781 -13.664062 8.5 -13.4375 C 8.207031 -13.207031 7.941406 -12.988281 7.703125 -12.78125 L 7.703125 -1.53125 C 7.703125 -1.375 7.675781 -1.191406 7.625 -0.984375 C 7.582031 -0.773438 7.46875 -0.578125 7.28125 -0.390625 C 7.101562 -0.210938 6.835938 -0.0546875 6.484375 0.078125 C 6.140625 0.210938 5.660156 0.28125 5.046875 0.28125 C 4.429688 0.28125 3.945312 0.207031 3.59375 0.0625 C 3.238281 -0.0820312 2.96875 -0.253906 2.78125 -0.453125 C 2.601562 -0.648438 2.488281 -0.851562 2.4375 -1.0625 C 2.394531 -1.269531 2.375 -1.4375 2.375 -1.5625 L 2.375 -14.953125 C 2.375 -15.285156 2.296875 -15.578125 2.140625 -15.828125 C 1.984375 -16.078125 1.722656 -16.203125 1.359375 -16.203125 C 1.160156 -16.203125 0.988281 -16.164062 0.84375 -16.09375 C 0.707031 -16.019531 0.5625 -15.921875 0.40625 -15.796875 L 0.03125 -16.234375 C 0.300781 -16.453125 0.597656 -16.664062 0.921875 -16.875 C 1.253906 -17.09375 1.609375 -17.28125 1.984375 -17.4375 C 2.367188 -17.601562 2.78125 -17.738281 3.21875 -17.84375 C 3.664062 -17.945312 4.128906 -18 4.609375 -18 C 5.109375 -18 5.535156 -17.929688 5.890625 -17.796875 C 6.242188 -17.671875 6.53125 -17.5 6.75 -17.28125 C 6.976562 -17.0625 7.15625 -16.816406 7.28125 -16.546875 C 7.40625 -16.285156 7.5 -16.019531 7.5625 -15.75 C 7.632812 -15.476562 7.675781 -15.21875 7.6875 -14.96875 C 7.695312 -14.726562 7.703125 -14.519531 7.703125 -14.34375 Z M 7.703125 -14.34375 "/></g></g></g><g fill="#ffcf00" fill-opacity="1"><g transform="translate(88.791412, 33.454021)"><g/></g></g><g fill="#ffcf00" fill-opacity="1"><g transform="translate(96.785704, 33.454021)"><g><path d="M 19.25 -5.96875 C 19.664062 -7.039062 20.101562 -8.238281 20.5625 -9.5625 C 21.03125 -10.882812 21.457031 -12.222656 21.84375 -13.578125 C 22.226562 -14.941406 22.546875 -16.265625 22.796875 -17.546875 C 23.054688 -18.828125 23.1875 -19.972656 23.1875 -20.984375 C 23.1875 -21.742188 23.132812 -22.378906 23.03125 -22.890625 C 22.925781 -23.398438 22.804688 -23.820312 22.671875 -24.15625 C 22.535156 -24.5 22.414062 -24.78125 22.3125 -25 C 22.207031 -25.226562 22.15625 -25.429688 22.15625 -25.609375 C 22.15625 -25.859375 22.222656 -26.066406 22.359375 -26.234375 C 22.492188 -26.398438 22.660156 -26.539062 22.859375 -26.65625 C 23.054688 -26.769531 23.269531 -26.851562 23.5 -26.90625 C 23.726562 -26.957031 23.945312 -26.984375 24.15625 -26.984375 C 24.613281 -26.984375 25 -26.910156 25.3125 -26.765625 C 25.632812 -26.628906 25.863281 -26.394531 26 -26.0625 C 26.050781 -25.882812 26.09375 -25.703125 26.125 -25.515625 C 26.164062 -25.328125 26.191406 -25.140625 26.203125 -24.953125 C 26.222656 -24.773438 26.234375 -24.609375 26.234375 -24.453125 C 26.234375 -24.296875 26.234375 -24.175781 26.234375 -24.09375 C 26.234375 -23.601562 26.148438 -22.9375 25.984375 -22.09375 C 25.828125 -21.25 25.613281 -20.296875 25.34375 -19.234375 C 25.070312 -18.171875 24.753906 -17.03125 24.390625 -15.8125 C 24.035156 -14.601562 23.664062 -13.378906 23.28125 -12.140625 C 22.90625 -10.910156 22.519531 -9.707031 22.125 -8.53125 C 21.726562 -7.351562 21.359375 -6.265625 21.015625 -5.265625 C 20.671875 -4.265625 20.363281 -3.390625 20.09375 -2.640625 C 19.820312 -1.890625 19.609375 -1.328125 19.453125 -0.953125 C 19.347656 -0.691406 19.21875 -0.476562 19.0625 -0.3125 C 18.90625 -0.144531 18.726562 -0.0195312 18.53125 0.0625 C 18.34375 0.144531 18.128906 0.203125 17.890625 0.234375 C 17.648438 0.265625 17.40625 0.28125 17.15625 0.28125 C 16.6875 0.28125 16.304688 0.234375 16.015625 0.140625 C 15.734375 0.046875 15.5 -0.0664062 15.3125 -0.203125 C 15.132812 -0.347656 15.003906 -0.5 14.921875 -0.65625 C 14.847656 -0.820312 14.785156 -0.96875 14.734375 -1.09375 L 8.171875 -21.734375 C 8.046875 -22.117188 7.914062 -22.445312 7.78125 -22.71875 C 7.644531 -23 7.476562 -23.222656 7.28125 -23.390625 C 7.09375 -23.566406 6.863281 -23.691406 6.59375 -23.765625 C 6.332031 -23.847656 6.007812 -23.890625 5.625 -23.890625 C 5.300781 -23.890625 4.921875 -23.8125 4.484375 -23.65625 C 4.054688 -23.5 3.648438 -23.269531 3.265625 -22.96875 C 2.878906 -22.664062 2.550781 -22.285156 2.28125 -21.828125 C 2.019531 -21.367188 1.890625 -20.835938 1.890625 -20.234375 C 1.890625 -19.867188 1.9375 -19.578125 2.03125 -19.359375 C 2.132812 -19.140625 2.25 -18.972656 2.375 -18.859375 C 2.5 -18.742188 2.628906 -18.671875 2.765625 -18.640625 C 2.898438 -18.617188 2.992188 -18.609375 3.046875 -18.609375 C 3.335938 -18.609375 3.578125 -18.65625 3.765625 -18.75 C 3.953125 -18.851562 4.117188 -18.957031 4.265625 -19.0625 C 4.410156 -19.175781 4.550781 -19.28125 4.6875 -19.375 C 4.820312 -19.476562 4.976562 -19.53125 5.15625 -19.53125 C 5.289062 -19.53125 5.4375 -19.492188 5.59375 -19.421875 C 5.75 -19.359375 5.890625 -19.257812 6.015625 -19.125 C 6.148438 -18.988281 6.265625 -18.804688 6.359375 -18.578125 C 6.453125 -18.359375 6.5 -18.085938 6.5 -17.765625 C 6.5 -17.296875 6.410156 -16.894531 6.234375 -16.5625 C 6.054688 -16.226562 5.820312 -15.945312 5.53125 -15.71875 C 5.25 -15.488281 4.925781 -15.316406 4.5625 -15.203125 C 4.195312 -15.097656 3.835938 -15.046875 3.484375 -15.046875 C 2.929688 -15.046875 2.4375 -15.144531 2 -15.34375 C 1.570312 -15.539062 1.207031 -15.804688 0.90625 -16.140625 C 0.613281 -16.472656 0.390625 -16.863281 0.234375 -17.3125 C 0.078125 -17.757812 0 -18.238281 0 -18.75 C 0 -19.945312 0.226562 -20.992188 0.6875 -21.890625 C 1.15625 -22.785156 1.769531 -23.535156 2.53125 -24.140625 C 3.289062 -24.742188 4.15625 -25.191406 5.125 -25.484375 C 6.101562 -25.773438 7.109375 -25.921875 8.140625 -25.921875 C 9.296875 -25.921875 10.242188 -25.742188 10.984375 -25.390625 C 11.722656 -25.046875 12.316406 -24.59375 12.765625 -24.03125 C 13.222656 -23.476562 13.582031 -22.859375 13.84375 -22.171875 C 14.113281 -21.484375 14.351562 -20.804688 14.5625 -20.140625 Z M 19.25 -5.96875 "/></g></g></g><g fill="#ffcf00" fill-opacity="1"><g transform="translate(123.022925, 33.454021)"><g><path d="M 6.640625 -7.953125 C 6.640625 -7.585938 6.691406 -7.1875 6.796875 -6.75 C 6.910156 -6.320312 7.070312 -5.882812 7.28125 -5.4375 C 7.488281 -5 7.742188 -4.582031 8.046875 -4.1875 C 8.359375 -3.789062 8.710938 -3.4375 9.109375 -3.125 C 9.515625 -2.8125 9.957031 -2.5625 10.4375 -2.375 C 10.925781 -2.1875 11.457031 -2.09375 12.03125 -2.09375 C 12.4375 -2.09375 12.8125 -2.140625 13.15625 -2.234375 C 13.507812 -2.328125 13.832031 -2.453125 14.125 -2.609375 C 14.425781 -2.773438 14.71875 -2.960938 15 -3.171875 C 15.28125 -3.390625 15.554688 -3.617188 15.828125 -3.859375 L 16.265625 -3.453125 C 16.003906 -3.085938 15.664062 -2.691406 15.25 -2.265625 C 14.832031 -1.835938 14.328125 -1.4375 13.734375 -1.0625 C 13.140625 -0.6875 12.445312 -0.375 11.65625 -0.125 C 10.875 0.125 9.984375 0.25 8.984375 0.25 C 7.972656 0.25 6.988281 0.0664062 6.03125 -0.296875 C 5.082031 -0.660156 4.238281 -1.207031 3.5 -1.9375 C 2.757812 -2.664062 2.164062 -3.570312 1.71875 -4.65625 C 1.28125 -5.75 1.0625 -7.023438 1.0625 -8.484375 C 1.0625 -9.535156 1.191406 -10.5 1.453125 -11.375 C 1.722656 -12.25 2.082031 -13.039062 2.53125 -13.75 C 2.988281 -14.457031 3.519531 -15.078125 4.125 -15.609375 C 4.738281 -16.140625 5.378906 -16.582031 6.046875 -16.9375 C 6.722656 -17.289062 7.410156 -17.554688 8.109375 -17.734375 C 8.804688 -17.910156 9.476562 -18 10.125 -18 C 10.976562 -18 11.722656 -17.90625 12.359375 -17.71875 C 12.992188 -17.539062 13.519531 -17.296875 13.9375 -16.984375 C 14.363281 -16.671875 14.679688 -16.304688 14.890625 -15.890625 C 15.097656 -15.484375 15.203125 -15.054688 15.203125 -14.609375 C 15.203125 -14.054688 15.046875 -13.5625 14.734375 -13.125 C 14.421875 -12.695312 14.003906 -12.320312 13.484375 -12 Z M 10.125 -11.484375 C 10.28125 -11.578125 10.40625 -11.664062 10.5 -11.75 C 10.59375 -11.832031 10.671875 -11.9375 10.734375 -12.0625 C 10.796875 -12.1875 10.835938 -12.335938 10.859375 -12.515625 C 10.890625 -12.691406 10.90625 -12.910156 10.90625 -13.171875 C 10.90625 -13.460938 10.875 -13.785156 10.8125 -14.140625 C 10.75 -14.492188 10.640625 -14.828125 10.484375 -15.140625 C 10.335938 -15.453125 10.148438 -15.710938 9.921875 -15.921875 C 9.691406 -16.128906 9.414062 -16.234375 9.09375 -16.234375 C 8.675781 -16.234375 8.316406 -16.109375 8.015625 -15.859375 C 7.722656 -15.609375 7.476562 -15.285156 7.28125 -14.890625 C 7.09375 -14.503906 6.941406 -14.054688 6.828125 -13.546875 C 6.722656 -13.046875 6.640625 -12.539062 6.578125 -12.03125 C 6.523438 -11.519531 6.492188 -11.03125 6.484375 -10.5625 C 6.472656 -10.101562 6.46875 -9.707031 6.46875 -9.375 Z M 10.125 -11.484375 "/></g></g></g><g fill="#ffcf00" fill-opacity="1"><g transform="translate(139.462369, 33.454021)"><g><path d="M 12.359375 -8.640625 C 12.359375 -10.097656 12.289062 -11.257812 12.15625 -12.125 C 12.03125 -13 11.859375 -13.664062 11.640625 -14.125 C 11.421875 -14.582031 11.175781 -14.882812 10.90625 -15.03125 C 10.644531 -15.175781 10.375 -15.25 10.09375 -15.25 C 9.757812 -15.25 9.460938 -15.15625 9.203125 -14.96875 C 8.941406 -14.789062 8.710938 -14.585938 8.515625 -14.359375 C 8.328125 -14.128906 8.164062 -13.894531 8.03125 -13.65625 C 7.90625 -13.425781 7.796875 -13.253906 7.703125 -13.140625 L 7.703125 -1.5625 C 7.703125 -1.40625 7.675781 -1.21875 7.625 -1 C 7.582031 -0.789062 7.46875 -0.59375 7.28125 -0.40625 C 7.101562 -0.21875 6.835938 -0.0546875 6.484375 0.078125 C 6.140625 0.210938 5.660156 0.28125 5.046875 0.28125 C 4.429688 0.28125 3.945312 0.207031 3.59375 0.0625 C 3.238281 -0.0820312 2.96875 -0.253906 2.78125 -0.453125 C 2.601562 -0.648438 2.488281 -0.851562 2.4375 -1.0625 C 2.394531 -1.269531 2.375 -1.4375 2.375 -1.5625 L 2.375 -14.953125 C 2.375 -15.285156 2.296875 -15.578125 2.140625 -15.828125 C 1.984375 -16.078125 1.722656 -16.203125 1.359375 -16.203125 C 1.160156 -16.203125 0.988281 -16.164062 0.84375 -16.09375 C 0.707031 -16.019531 0.5625 -15.921875 0.40625 -15.796875 L 0.03125 -16.234375 C 0.300781 -16.453125 0.597656 -16.664062 0.921875 -16.875 C 1.253906 -17.09375 1.609375 -17.28125 1.984375 -17.4375 C 2.367188 -17.601562 2.78125 -17.738281 3.21875 -17.84375 C 3.664062 -17.945312 4.128906 -18 4.609375 -18 C 5.359375 -18 5.941406 -17.875 6.359375 -17.625 C 6.773438 -17.375 7.082031 -17.078125 7.28125 -16.734375 C 7.476562 -16.390625 7.597656 -16.03125 7.640625 -15.65625 C 7.679688 -15.28125 7.703125 -14.960938 7.703125 -14.703125 C 8.128906 -15.316406 8.613281 -15.867188 9.15625 -16.359375 C 9.375 -16.566406 9.617188 -16.765625 9.890625 -16.953125 C 10.160156 -17.148438 10.445312 -17.328125 10.75 -17.484375 C 11.0625 -17.640625 11.390625 -17.765625 11.734375 -17.859375 C 12.078125 -17.953125 12.425781 -18 12.78125 -18 C 13.5625 -18 14.253906 -17.847656 14.859375 -17.546875 C 15.472656 -17.242188 15.988281 -16.738281 16.40625 -16.03125 C 16.820312 -15.332031 17.140625 -14.398438 17.359375 -13.234375 C 17.578125 -12.078125 17.6875 -10.632812 17.6875 -8.90625 C 17.6875 -7.238281 17.535156 -5.785156 17.234375 -4.546875 C 16.929688 -3.304688 16.535156 -2.253906 16.046875 -1.390625 C 15.566406 -0.523438 15.019531 0.179688 14.40625 0.734375 C 13.789062 1.285156 13.171875 1.71875 12.546875 2.03125 C 11.929688 2.34375 11.335938 2.554688 10.765625 2.671875 C 10.191406 2.796875 9.695312 2.863281 9.28125 2.875 L 9.09375 2.171875 C 9.4375 2.085938 9.753906 1.957031 10.046875 1.78125 C 10.335938 1.613281 10.601562 1.359375 10.84375 1.015625 C 11.09375 0.679688 11.3125 0.257812 11.5 -0.25 C 11.6875 -0.757812 11.84375 -1.398438 11.96875 -2.171875 C 12.101562 -2.953125 12.203125 -3.867188 12.265625 -4.921875 C 12.328125 -5.984375 12.359375 -7.222656 12.359375 -8.640625 Z M 12.359375 -8.640625 "/></g></g></g><g fill="#ffcf00" fill-opacity="1"><g transform="translate(158.572356, 33.454021)"><g><path d="M 7.78125 -16.515625 L 7.78125 -3.6875 C 7.78125 -3.082031 7.894531 -2.660156 8.125 -2.421875 C 8.363281 -2.179688 8.6875 -2.0625 9.09375 -2.0625 C 9.40625 -2.0625 9.679688 -2.144531 9.921875 -2.3125 C 10.160156 -2.488281 10.367188 -2.6875 10.546875 -2.90625 C 10.753906 -3.15625 10.929688 -3.441406 11.078125 -3.765625 L 11.625 -3.515625 C 11.445312 -3.148438 11.238281 -2.742188 11 -2.296875 C 10.757812 -1.859375 10.441406 -1.453125 10.046875 -1.078125 C 9.660156 -0.703125 9.171875 -0.382812 8.578125 -0.125 C 7.984375 0.125 7.234375 0.25 6.328125 0.25 C 5.816406 0.25 5.328125 0.171875 4.859375 0.015625 C 4.390625 -0.128906 3.972656 -0.363281 3.609375 -0.6875 C 3.242188 -1.007812 2.953125 -1.414062 2.734375 -1.90625 C 2.515625 -2.394531 2.40625 -2.976562 2.40625 -3.65625 L 2.40625 -16.515625 L 0.46875 -16.515625 L 0.46875 -17.765625 C 0.789062 -17.765625 1.238281 -17.847656 1.8125 -18.015625 C 2.394531 -18.179688 2.988281 -18.457031 3.59375 -18.84375 C 4.207031 -19.238281 4.769531 -19.765625 5.28125 -20.421875 C 5.800781 -21.085938 6.175781 -21.90625 6.40625 -22.875 L 7.78125 -22.875 L 7.78125 -17.765625 L 10.609375 -17.765625 C 11.535156 -17.765625 12 -17.914062 12 -18.21875 C 12 -18.34375 11.941406 -18.421875 11.828125 -18.453125 C 11.710938 -18.492188 11.582031 -18.546875 11.4375 -18.609375 C 11.289062 -18.679688 11.160156 -18.773438 11.046875 -18.890625 C 10.929688 -19.003906 10.875 -19.191406 10.875 -19.453125 C 10.875 -19.773438 10.972656 -20.03125 11.171875 -20.21875 C 11.378906 -20.40625 11.644531 -20.5 11.96875 -20.5 C 12.175781 -20.5 12.359375 -20.453125 12.515625 -20.359375 C 12.671875 -20.273438 12.800781 -20.160156 12.90625 -20.015625 C 13.007812 -19.867188 13.085938 -19.703125 13.140625 -19.515625 C 13.191406 -19.335938 13.21875 -19.15625 13.21875 -18.96875 C 13.21875 -18.21875 13 -17.617188 12.5625 -17.171875 C 12.125 -16.734375 11.425781 -16.515625 10.46875 -16.515625 Z M 7.78125 -16.515625 "/></g></g></g><g fill="#ffcf00" fill-opacity="1"><g transform="translate(170.537775, 33.454021)"><g><path d="M 17.328125 -3.015625 C 17.328125 -2.910156 17.332031 -2.796875 17.34375 -2.671875 C 17.351562 -2.554688 17.378906 -2.441406 17.421875 -2.328125 C 17.472656 -2.222656 17.546875 -2.132812 17.640625 -2.0625 C 17.734375 -1.988281 17.863281 -1.953125 18.03125 -1.953125 C 18.25 -1.953125 18.445312 -2.03125 18.625 -2.1875 C 18.800781 -2.34375 18.960938 -2.503906 19.109375 -2.671875 L 19.53125 -2.3125 C 19.351562 -2.0625 19.132812 -1.789062 18.875 -1.5 C 18.613281 -1.207031 18.296875 -0.925781 17.921875 -0.65625 C 17.554688 -0.394531 17.132812 -0.175781 16.65625 0 C 16.1875 0.1875 15.648438 0.28125 15.046875 0.28125 C 14.546875 0.28125 14.101562 0.210938 13.71875 0.078125 C 13.34375 -0.0546875 13.023438 -0.234375 12.765625 -0.453125 C 12.503906 -0.679688 12.3125 -0.945312 12.1875 -1.25 C 12.0625 -1.5625 12 -1.890625 12 -2.234375 L 12 -3.015625 C 11.425781 -2.390625 10.816406 -1.84375 10.171875 -1.375 C 9.898438 -1.164062 9.609375 -0.960938 9.296875 -0.765625 C 8.984375 -0.566406 8.660156 -0.390625 8.328125 -0.234375 C 7.992188 -0.078125 7.644531 0.046875 7.28125 0.140625 C 6.925781 0.234375 6.566406 0.28125 6.203125 0.28125 C 5.515625 0.28125 4.921875 0.15625 4.421875 -0.09375 C 3.929688 -0.34375 3.535156 -0.671875 3.234375 -1.078125 C 2.941406 -1.484375 2.722656 -1.9375 2.578125 -2.4375 C 2.441406 -2.945312 2.375 -3.457031 2.375 -3.96875 L 2.375 -14.703125 C 2.375 -14.804688 2.367188 -14.914062 2.359375 -15.03125 C 2.347656 -15.15625 2.316406 -15.273438 2.265625 -15.390625 C 2.222656 -15.503906 2.15625 -15.59375 2.0625 -15.65625 C 1.96875 -15.726562 1.835938 -15.765625 1.671875 -15.765625 C 1.460938 -15.765625 1.265625 -15.6875 1.078125 -15.53125 C 0.898438 -15.375 0.742188 -15.210938 0.609375 -15.046875 L 0.171875 -15.421875 C 0.347656 -15.660156 0.566406 -15.925781 0.828125 -16.21875 C 1.085938 -16.519531 1.398438 -16.800781 1.765625 -17.0625 C 2.140625 -17.332031 2.566406 -17.554688 3.046875 -17.734375 C 3.523438 -17.910156 4.054688 -18 4.640625 -18 C 5.148438 -18 5.597656 -17.929688 5.984375 -17.796875 C 6.367188 -17.671875 6.6875 -17.492188 6.9375 -17.265625 C 7.1875 -17.035156 7.375 -16.765625 7.5 -16.453125 C 7.632812 -16.148438 7.703125 -15.828125 7.703125 -15.484375 L 7.703125 -3.90625 C 7.703125 -3.738281 7.726562 -3.570312 7.78125 -3.40625 C 7.832031 -3.238281 7.90625 -3.082031 8 -2.9375 C 8.101562 -2.800781 8.226562 -2.691406 8.375 -2.609375 C 8.519531 -2.523438 8.695312 -2.484375 8.90625 -2.484375 C 9.25 -2.484375 9.585938 -2.566406 9.921875 -2.734375 C 10.253906 -2.910156 10.554688 -3.117188 10.828125 -3.359375 C 11.109375 -3.597656 11.347656 -3.832031 11.546875 -4.0625 C 11.753906 -4.289062 11.90625 -4.460938 12 -4.578125 L 12 -14.703125 C 12 -14.804688 11.992188 -14.914062 11.984375 -15.03125 C 11.972656 -15.15625 11.941406 -15.273438 11.890625 -15.390625 C 11.847656 -15.503906 11.78125 -15.59375 11.6875 -15.65625 C 11.59375 -15.726562 11.460938 -15.765625 11.296875 -15.765625 C 11.085938 -15.765625 10.890625 -15.6875 10.703125 -15.53125 C 10.523438 -15.375 10.367188 -15.210938 10.234375 -15.046875 L 9.796875 -15.421875 C 9.972656 -15.660156 10.191406 -15.925781 10.453125 -16.21875 C 10.710938 -16.519531 11.023438 -16.800781 11.390625 -17.0625 C 11.765625 -17.332031 12.191406 -17.554688 12.671875 -17.734375 C 13.148438 -17.910156 13.679688 -18 14.265625 -18 C 14.773438 -18 15.222656 -17.929688 15.609375 -17.796875 C 15.992188 -17.671875 16.3125 -17.492188 16.5625 -17.265625 C 16.8125 -17.035156 17 -16.765625 17.125 -16.453125 C 17.257812 -16.148438 17.328125 -15.828125 17.328125 -15.484375 Z M 17.328125 -3.015625 "/></g></g></g><g fill="#ffcf00" fill-opacity="1"><g transform="translate(190.25471, 33.454021)"><g><path d="M 7.703125 -14.34375 C 8.140625 -15.007812 8.609375 -15.613281 9.109375 -16.15625 C 9.316406 -16.394531 9.539062 -16.625 9.78125 -16.84375 C 10.019531 -17.0625 10.269531 -17.253906 10.53125 -17.421875 C 10.789062 -17.597656 11.054688 -17.738281 11.328125 -17.84375 C 11.609375 -17.945312 11.890625 -18 12.171875 -18 C 12.765625 -18 13.226562 -17.820312 13.5625 -17.46875 C 13.894531 -17.113281 14.0625 -16.617188 14.0625 -15.984375 C 14.0625 -15.597656 14.03125 -15.222656 13.96875 -14.859375 C 13.90625 -14.492188 13.78125 -14.050781 13.59375 -13.53125 L 13.109375 -13.53125 C 13.035156 -13.882812 12.875 -14.179688 12.625 -14.421875 C 12.375 -14.660156 12.003906 -14.78125 11.515625 -14.78125 C 11.160156 -14.78125 10.804688 -14.710938 10.453125 -14.578125 C 10.109375 -14.441406 9.769531 -14.273438 9.4375 -14.078125 C 9.113281 -13.878906 8.800781 -13.664062 8.5 -13.4375 C 8.207031 -13.207031 7.941406 -12.988281 7.703125 -12.78125 L 7.703125 -1.53125 C 7.703125 -1.375 7.675781 -1.191406 7.625 -0.984375 C 7.582031 -0.773438 7.46875 -0.578125 7.28125 -0.390625 C 7.101562 -0.210938 6.835938 -0.0546875 6.484375 0.078125 C 6.140625 0.210938 5.660156 0.28125 5.046875 0.28125 C 4.429688 0.28125 3.945312 0.207031 3.59375 0.0625 C 3.238281 -0.0820312 2.96875 -0.253906 2.78125 -0.453125 C 2.601562 -0.648438 2.488281 -0.851562 2.4375 -1.0625 C 2.394531 -1.269531 2.375 -1.4375 2.375 -1.5625 L 2.375 -14.953125 C 2.375 -15.285156 2.296875 -15.578125 2.140625 -15.828125 C 1.984375 -16.078125 1.722656 -16.203125 1.359375 -16.203125 C 1.160156 -16.203125 0.988281 -16.164062 0.84375 -16.09375 C 0.707031 -16.019531 0.5625 -15.921875 0.40625 -15.796875 L 0.03125 -16.234375 C 0.300781 -16.453125 0.597656 -16.664062 0.921875 -16.875 C 1.253906 -17.09375 1.609375 -17.28125 1.984375 -17.4375 C 2.367188 -17.601562 2.78125 -17.738281 3.21875 -17.84375 C 3.664062 -17.945312 4.128906 -18 4.609375 -18 C 5.109375 -18 5.535156 -17.929688 5.890625 -17.796875 C 6.242188 -17.671875 6.53125 -17.5 6.75 -17.28125 C 6.976562 -17.0625 7.15625 -16.816406 7.28125 -16.546875 C 7.40625 -16.285156 7.5 -16.019531 7.5625 -15.75 C 7.632812 -15.476562 7.675781 -15.21875 7.6875 -14.96875 C 7.695312 -14.726562 7.703125 -14.519531 7.703125 -14.34375 Z M 7.703125 -14.34375 "/></g></g></g><g fill="#ffcf00" fill-opacity="1"><g transform="translate(204.353089, 33.454021)"><g><path d="M 9.96875 -8.984375 C 9.96875 -9.273438 9.875 -9.492188 9.6875 -9.640625 C 9.507812 -9.796875 9.273438 -9.875 8.984375 -9.875 C 8.578125 -9.875 8.191406 -9.78125 7.828125 -9.59375 C 7.460938 -9.40625 7.140625 -9.128906 6.859375 -8.765625 C 6.585938 -8.410156 6.367188 -7.96875 6.203125 -7.4375 C 6.046875 -6.914062 5.96875 -6.3125 5.96875 -5.625 C 5.96875 -4.945312 6.015625 -4.390625 6.109375 -3.953125 C 6.210938 -3.515625 6.347656 -3.164062 6.515625 -2.90625 C 6.679688 -2.644531 6.875 -2.460938 7.09375 -2.359375 C 7.3125 -2.253906 7.539062 -2.203125 7.78125 -2.203125 C 8.082031 -2.203125 8.363281 -2.28125 8.625 -2.4375 C 8.894531 -2.59375 9.128906 -2.789062 9.328125 -3.03125 C 9.523438 -3.28125 9.679688 -3.550781 9.796875 -3.84375 C 9.910156 -4.144531 9.96875 -4.445312 9.96875 -4.75 Z M 7.21875 -16.578125 C 6.820312 -16.578125 6.457031 -16.53125 6.125 -16.4375 C 5.789062 -16.34375 5.5 -16.226562 5.25 -16.09375 C 5.007812 -15.957031 4.816406 -15.800781 4.671875 -15.625 C 4.535156 -15.457031 4.46875 -15.300781 4.46875 -15.15625 C 4.46875 -14.976562 4.554688 -14.851562 4.734375 -14.78125 C 4.921875 -14.707031 5.125 -14.617188 5.34375 -14.515625 C 5.5625 -14.421875 5.757812 -14.285156 5.9375 -14.109375 C 6.113281 -13.929688 6.203125 -13.65625 6.203125 -13.28125 C 6.203125 -13.039062 6.148438 -12.816406 6.046875 -12.609375 C 5.953125 -12.410156 5.820312 -12.234375 5.65625 -12.078125 C 5.488281 -11.921875 5.289062 -11.796875 5.0625 -11.703125 C 4.84375 -11.617188 4.613281 -11.578125 4.375 -11.578125 C 3.726562 -11.578125 3.203125 -11.796875 2.796875 -12.234375 C 2.398438 -12.679688 2.203125 -13.269531 2.203125 -14 C 2.203125 -14.695312 2.382812 -15.296875 2.75 -15.796875 C 3.125 -16.304688 3.609375 -16.722656 4.203125 -17.046875 C 4.796875 -17.367188 5.46875 -17.609375 6.21875 -17.765625 C 6.976562 -17.921875 7.734375 -18 8.484375 -18 C 9.378906 -18 10.238281 -17.898438 11.0625 -17.703125 C 11.882812 -17.503906 12.609375 -17.191406 13.234375 -16.765625 C 13.867188 -16.335938 14.375 -15.796875 14.75 -15.140625 C 15.125 -14.484375 15.3125 -13.6875 15.3125 -12.75 L 15.3125 -2.953125 C 15.3125 -2.847656 15.316406 -2.726562 15.328125 -2.59375 C 15.335938 -2.46875 15.363281 -2.351562 15.40625 -2.25 C 15.457031 -2.144531 15.53125 -2.054688 15.625 -1.984375 C 15.71875 -1.921875 15.851562 -1.890625 16.03125 -1.890625 C 16.226562 -1.890625 16.414062 -1.96875 16.59375 -2.125 C 16.78125 -2.28125 16.941406 -2.4375 17.078125 -2.59375 L 17.515625 -2.234375 C 17.335938 -1.992188 17.128906 -1.726562 16.890625 -1.4375 C 16.648438 -1.144531 16.351562 -0.875 16 -0.625 C 15.65625 -0.375 15.25 -0.160156 14.78125 0.015625 C 14.320312 0.191406 13.800781 0.28125 13.21875 0.28125 C 12.488281 0.28125 11.835938 0.0664062 11.265625 -0.359375 C 10.703125 -0.796875 10.332031 -1.46875 10.15625 -2.375 C 9.789062 -1.875 9.40625 -1.457031 9 -1.125 C 8.601562 -0.789062 8.195312 -0.519531 7.78125 -0.3125 C 7.363281 -0.101562 6.941406 0.046875 6.515625 0.140625 C 6.097656 0.234375 5.675781 0.28125 5.25 0.28125 C 4.695312 0.28125 4.160156 0.191406 3.640625 0.015625 C 3.117188 -0.160156 2.648438 -0.4375 2.234375 -0.8125 C 1.828125 -1.1875 1.5 -1.671875 1.25 -2.265625 C 1.007812 -2.867188 0.890625 -3.601562 0.890625 -4.46875 C 0.890625 -5.519531 1.097656 -6.378906 1.515625 -7.046875 C 1.929688 -7.722656 2.472656 -8.289062 3.140625 -8.75 C 3.816406 -9.207031 4.585938 -9.597656 5.453125 -9.921875 C 6.316406 -10.242188 7.195312 -10.582031 8.09375 -10.9375 C 8.769531 -11.207031 9.257812 -11.601562 9.5625 -12.125 C 9.875 -12.65625 10.03125 -13.195312 10.03125 -13.75 C 10.03125 -14.601562 9.773438 -15.285156 9.265625 -15.796875 C 8.765625 -16.316406 8.082031 -16.578125 7.21875 -16.578125 Z M 7.21875 -16.578125 "/></g></g></g></svg>