<svg xmlns="http://www.w3.org/2000/svg" xmlns:xlink="http://www.w3.org/1999/xlink" width="250" zoomAndPan="magnify" viewBox="0 0 187.5 30.000001" height="40" preserveAspectRatio="xMidYMid meet" version="1.0"><defs><clipPath id="id1"><path d="M 170 9 L 184.234375 9 L 184.234375 25 L 170 25 Z M 170 9 " clip-rule="nonzero"/></clipPath></defs><path fill="#5ce1e6" d="M 11.347656 7.699219 C 11.347656 8.027344 11.398438 8.296875 11.503906 8.507812 C 11.605469 8.722656 11.734375 8.90625 11.890625 9.0625 C 12.054688 9.207031 12.230469 9.328125 12.410156 9.421875 C 12.59375 9.519531 12.761719 9.613281 12.917969 9.71875 C 13.082031 9.820312 13.21875 9.941406 13.320312 10.078125 C 13.425781 10.207031 13.476562 10.378906 13.476562 10.589844 C 13.476562 10.945312 13.351562 11.214844 13.101562 11.402344 C 12.847656 11.582031 12.5625 11.671875 12.242188 11.671875 C 11.929688 11.671875 11.636719 11.578125 11.371094 11.386719 C 11.113281 11.203125 10.882812 10.945312 10.683594 10.617188 C 10.492188 10.28125 10.335938 9.898438 10.214844 9.460938 C 10.101562 9.015625 10.046875 8.542969 10.046875 8.046875 C 10.046875 7.4375 10.140625 6.855469 10.332031 6.296875 C 10.519531 5.742188 10.804688 5.25 11.175781 4.832031 C 11.558594 4.414062 12.023438 4.078125 12.582031 3.828125 C 13.132812 3.578125 13.765625 3.453125 14.476562 3.453125 C 14.953125 3.453125 15.472656 3.539062 16.039062 3.699219 C 16.609375 3.851562 17.175781 4.105469 17.738281 4.445312 C 18.300781 4.777344 18.84375 5.222656 19.363281 5.769531 C 19.890625 6.308594 20.359375 6.972656 20.769531 7.75 C 21.171875 8.53125 21.5 9.433594 21.742188 10.460938 C 21.984375 11.492188 22.105469 12.660156 22.105469 13.960938 C 22.105469 15.640625 21.847656 17.148438 21.339844 18.488281 C 20.835938 19.816406 20.15625 20.941406 19.300781 21.867188 C 18.441406 22.792969 17.445312 23.507812 16.308594 24.003906 C 15.171875 24.492188 13.972656 24.734375 12.699219 24.734375 C 11.441406 24.734375 10.242188 24.519531 9.097656 24.09375 C 7.953125 23.664062 6.945312 23.011719 6.070312 22.136719 C 5.203125 21.257812 4.511719 20.140625 3.992188 18.78125 C 3.476562 17.417969 3.222656 15.8125 3.222656 13.960938 C 3.222656 12.519531 3.417969 11.214844 3.808594 10.039062 C 4.199219 8.855469 4.722656 7.8125 5.382812 6.902344 C 6.039062 5.984375 6.804688 5.214844 7.679688 4.585938 C 8.554688 3.960938 9.480469 3.488281 10.460938 3.171875 L 10.957031 3.777344 C 10.675781 4.058594 10.417969 4.347656 10.175781 4.636719 C 9.933594 4.929688 9.710938 5.265625 9.515625 5.640625 C 9.3125 6.019531 9.128906 6.449219 8.96875 6.9375 C 8.8125 7.429688 8.683594 8.007812 8.578125 8.675781 C 8.472656 9.335938 8.390625 10.097656 8.332031 10.964844 C 8.269531 11.832031 8.242188 12.828125 8.242188 13.960938 C 8.242188 15.425781 8.316406 16.679688 8.472656 17.714844 C 8.636719 18.753906 8.84375 19.625 9.097656 20.324219 C 9.359375 21.019531 9.648438 21.574219 9.96875 21.984375 C 10.285156 22.394531 10.613281 22.710938 10.941406 22.921875 C 11.269531 23.128906 11.585938 23.265625 11.890625 23.335938 C 12.203125 23.394531 12.46875 23.425781 12.699219 23.425781 C 12.929688 23.425781 13.199219 23.394531 13.503906 23.335938 C 13.804688 23.265625 14.117188 23.128906 14.4375 22.921875 C 14.757812 22.710938 15.074219 22.394531 15.386719 21.984375 C 15.707031 21.574219 15.988281 21.019531 16.230469 20.324219 C 16.484375 19.625 16.679688 18.753906 16.828125 17.714844 C 16.984375 16.679688 17.0625 15.425781 17.0625 13.960938 C 17.0625 12.675781 17.003906 11.554688 16.894531 10.605469 C 16.78125 9.652344 16.628906 8.839844 16.441406 8.160156 C 16.257812 7.484375 16.039062 6.933594 15.789062 6.503906 C 15.546875 6.066406 15.289062 5.722656 15.023438 5.472656 C 14.765625 5.226562 14.496094 5.054688 14.230469 4.960938 C 13.972656 4.855469 13.726562 4.804688 13.503906 4.804688 C 13.15625 4.804688 12.847656 4.886719 12.582031 5.050781 C 12.3125 5.214844 12.085938 5.433594 11.90625 5.703125 C 11.722656 5.972656 11.582031 6.28125 11.488281 6.628906 C 11.390625 6.976562 11.347656 7.332031 11.347656 7.699219 Z M 11.347656 7.699219 " fill-opacity="1" fill-rule="nonzero"/><path fill="#5ce1e6" d="M 37.410156 23.246094 C 37.410156 23.371094 37.390625 23.523438 37.347656 23.695312 C 37.3125 23.867188 37.21875 24.027344 37.0625 24.183594 C 36.910156 24.332031 36.6875 24.460938 36.386719 24.570312 C 36.089844 24.679688 35.691406 24.734375 35.191406 24.734375 C 34.675781 24.734375 34.273438 24.675781 33.980469 24.554688 C 33.6875 24.4375 33.464844 24.296875 33.320312 24.132812 C 33.167969 23.972656 33.074219 23.804688 33.03125 23.628906 C 32.996094 23.460938 32.980469 23.320312 32.980469 23.21875 L 32.980469 13.125 C 32.980469 12.996094 32.957031 12.863281 32.914062 12.726562 C 32.878906 12.589844 32.824219 12.464844 32.746094 12.351562 C 32.667969 12.234375 32.570312 12.140625 32.460938 12.070312 C 32.347656 11.992188 32.214844 11.953125 32.058594 11.953125 C 31.796875 11.953125 31.542969 12.03125 31.292969 12.1875 C 31.039062 12.332031 30.804688 12.5 30.589844 12.6875 C 30.371094 12.878906 30.1875 13.070312 30.03125 13.265625 C 29.875 13.457031 29.761719 13.597656 29.691406 13.691406 L 29.691406 23.246094 C 29.691406 23.371094 29.671875 23.523438 29.628906 23.695312 C 29.59375 23.867188 29.496094 24.027344 29.34375 24.183594 C 29.191406 24.332031 28.972656 24.460938 28.679688 24.570312 C 28.394531 24.679688 27.992188 24.734375 27.484375 24.734375 C 26.96875 24.734375 26.566406 24.675781 26.273438 24.554688 C 25.980469 24.4375 25.753906 24.296875 25.597656 24.132812 C 25.449219 23.972656 25.355469 23.804688 25.3125 23.628906 C 25.277344 23.460938 25.261719 23.320312 25.261719 23.21875 L 25.261719 12.199219 C 25.261719 11.925781 25.195312 11.683594 25.066406 11.480469 C 24.9375 11.273438 24.71875 11.171875 24.417969 11.171875 C 24.25 11.171875 24.109375 11.203125 23.988281 11.261719 C 23.875 11.320312 23.753906 11.402344 23.625 11.503906 L 23.3125 11.144531 C 23.535156 10.964844 23.785156 10.789062 24.054688 10.617188 C 24.328125 10.4375 24.625 10.28125 24.9375 10.152344 C 25.253906 10.019531 25.597656 9.90625 25.964844 9.820312 C 26.332031 9.734375 26.71875 9.691406 27.121094 9.691406 C 27.742188 9.691406 28.226562 9.792969 28.574219 10 C 28.917969 10.207031 29.175781 10.449219 29.34375 10.734375 C 29.503906 11.015625 29.605469 11.3125 29.640625 11.621094 C 29.671875 11.929688 29.691406 12.191406 29.691406 12.40625 C 30.140625 11.898438 30.628906 11.445312 31.148438 11.042969 C 31.355469 10.871094 31.582031 10.707031 31.835938 10.550781 C 32.097656 10.390625 32.359375 10.242188 32.628906 10.117188 C 32.894531 9.988281 33.175781 9.882812 33.460938 9.808594 C 33.753906 9.730469 34.046875 9.691406 34.332031 9.691406 C 34.894531 9.691406 35.371094 9.792969 35.761719 10 C 36.15625 10.199219 36.476562 10.4375 36.710938 10.71875 C 36.949219 10.996094 37.128906 11.285156 37.242188 11.59375 C 37.351562 11.902344 37.410156 12.171875 37.410156 12.40625 C 37.871094 11.898438 38.355469 11.445312 38.867188 11.042969 C 39.074219 10.871094 39.300781 10.707031 39.554688 10.550781 C 39.804688 10.390625 40.066406 10.242188 40.335938 10.117188 C 40.613281 9.988281 40.894531 9.882812 41.179688 9.808594 C 41.464844 9.730469 41.753906 9.691406 42.039062 9.691406 C 42.589844 9.691406 43.066406 9.792969 43.453125 10 C 43.851562 10.207031 44.171875 10.476562 44.417969 10.808594 C 44.65625 11.136719 44.832031 11.511719 44.9375 11.929688 C 45.046875 12.351562 45.105469 12.769531 45.105469 13.1875 L 45.105469 22.023438 C 45.105469 22.109375 45.109375 22.203125 45.117188 22.304688 C 45.125 22.402344 45.148438 22.496094 45.183594 22.589844 C 45.226562 22.675781 45.285156 22.75 45.363281 22.808594 C 45.449219 22.867188 45.5625 22.898438 45.703125 22.898438 C 45.882812 22.898438 46.042969 22.832031 46.183594 22.703125 C 46.328125 22.574219 46.46875 22.445312 46.597656 22.304688 L 46.9375 22.601562 C 46.808594 22.808594 46.628906 23.03125 46.40625 23.269531 C 46.1875 23.511719 45.925781 23.742188 45.625 23.964844 C 45.320312 24.179688 44.96875 24.359375 44.570312 24.503906 C 44.171875 24.660156 43.722656 24.734375 43.222656 24.734375 C 42.796875 24.734375 42.429688 24.679688 42.117188 24.570312 C 41.804688 24.460938 41.539062 24.3125 41.324219 24.132812 C 41.105469 23.945312 40.941406 23.726562 40.828125 23.476562 C 40.726562 23.21875 40.671875 22.949219 40.671875 22.664062 L 40.671875 13.125 C 40.671875 12.996094 40.652344 12.863281 40.621094 12.726562 C 40.585938 12.589844 40.53125 12.464844 40.453125 12.351562 C 40.382812 12.234375 40.285156 12.140625 40.167969 12.070312 C 40.054688 11.992188 39.921875 11.953125 39.777344 11.953125 C 39.515625 11.953125 39.257812 12.03125 38.996094 12.1875 C 38.742188 12.332031 38.511719 12.5 38.296875 12.6875 C 38.078125 12.878906 37.894531 13.070312 37.738281 13.265625 C 37.582031 13.457031 37.46875 13.597656 37.410156 13.691406 Z M 37.410156 23.246094 " fill-opacity="1" fill-rule="nonzero"/><path fill="#5ce1e6" d="M 55.386719 17.109375 C 55.386719 16.871094 55.308594 16.691406 55.15625 16.570312 C 55.003906 16.441406 54.808594 16.378906 54.570312 16.378906 C 54.230469 16.378906 53.910156 16.453125 53.609375 16.609375 C 53.300781 16.761719 53.035156 16.992188 52.800781 17.289062 C 52.574219 17.582031 52.394531 17.945312 52.257812 18.382812 C 52.125 18.816406 52.0625 19.308594 52.0625 19.875 C 52.0625 20.433594 52.101562 20.890625 52.179688 21.25 C 52.261719 21.609375 52.375 21.902344 52.515625 22.113281 C 52.652344 22.328125 52.816406 22.480469 52.996094 22.5625 C 53.179688 22.648438 53.367188 22.691406 53.570312 22.691406 C 53.820312 22.691406 54.054688 22.628906 54.269531 22.5 C 54.496094 22.371094 54.691406 22.210938 54.855469 22.011719 C 55.019531 21.804688 55.148438 21.582031 55.246094 21.339844 C 55.339844 21.09375 55.386719 20.847656 55.386719 20.59375 Z M 53.101562 10.863281 C 52.769531 10.863281 52.46875 10.898438 52.191406 10.976562 C 51.914062 11.054688 51.671875 11.152344 51.464844 11.261719 C 51.261719 11.371094 51.101562 11.5 50.984375 11.644531 C 50.871094 11.785156 50.8125 11.914062 50.8125 12.03125 C 50.8125 12.179688 50.886719 12.28125 51.035156 12.339844 C 51.191406 12.402344 51.359375 12.476562 51.542969 12.558594 C 51.722656 12.636719 51.886719 12.75 52.035156 12.894531 C 52.183594 13.039062 52.257812 13.265625 52.257812 13.574219 C 52.257812 13.773438 52.210938 13.957031 52.125 14.128906 C 52.046875 14.292969 51.9375 14.4375 51.800781 14.566406 C 51.660156 14.691406 51.496094 14.796875 51.308594 14.875 C 51.125 14.945312 50.933594 14.976562 50.734375 14.976562 C 50.195312 14.976562 49.761719 14.796875 49.421875 14.4375 C 49.09375 14.070312 48.929688 13.585938 48.929688 12.984375 C 48.929688 12.410156 49.078125 11.914062 49.382812 11.503906 C 49.695312 11.085938 50.097656 10.742188 50.59375 10.476562 C 51.085938 10.210938 51.644531 10.011719 52.269531 9.882812 C 52.898438 9.753906 53.53125 9.691406 54.152344 9.691406 C 54.898438 9.691406 55.613281 9.773438 56.296875 9.933594 C 56.980469 10.097656 57.585938 10.355469 58.105469 10.707031 C 58.628906 11.0625 59.054688 11.503906 59.363281 12.042969 C 59.675781 12.585938 59.832031 13.238281 59.832031 14.011719 L 59.832031 22.074219 C 59.832031 22.160156 59.835938 22.261719 59.84375 22.371094 C 59.851562 22.472656 59.875 22.570312 59.910156 22.652344 C 59.953125 22.738281 60.015625 22.8125 60.09375 22.871094 C 60.171875 22.921875 60.28125 22.949219 60.429688 22.949219 C 60.59375 22.949219 60.75 22.882812 60.898438 22.753906 C 61.054688 22.628906 61.1875 22.5 61.300781 22.371094 L 61.664062 22.664062 C 61.515625 22.863281 61.34375 23.082031 61.144531 23.320312 C 60.945312 23.5625 60.695312 23.785156 60.40625 23.988281 C 60.117188 24.195312 59.78125 24.371094 59.390625 24.515625 C 59.007812 24.660156 58.574219 24.734375 58.089844 24.734375 C 57.484375 24.734375 56.941406 24.558594 56.46875 24.207031 C 56 23.847656 55.691406 23.296875 55.542969 22.550781 C 55.238281 22.960938 54.921875 23.304688 54.582031 23.578125 C 54.25 23.855469 53.914062 24.078125 53.570312 24.246094 C 53.222656 24.421875 52.871094 24.542969 52.515625 24.621094 C 52.167969 24.699219 51.816406 24.734375 51.464844 24.734375 C 51.003906 24.734375 50.558594 24.660156 50.125 24.515625 C 49.691406 24.371094 49.300781 24.144531 48.957031 23.835938 C 48.617188 23.527344 48.34375 23.128906 48.136719 22.640625 C 47.9375 22.144531 47.839844 21.539062 47.839844 20.828125 C 47.839844 19.960938 48.011719 19.253906 48.359375 18.707031 C 48.703125 18.148438 49.152344 17.683594 49.710938 17.304688 C 50.273438 16.925781 50.910156 16.605469 51.632812 16.339844 C 52.351562 16.074219 53.082031 15.796875 53.828125 15.503906 C 54.390625 15.28125 54.796875 14.957031 55.050781 14.527344 C 55.308594 14.089844 55.441406 13.644531 55.441406 13.1875 C 55.441406 12.488281 55.226562 11.925781 54.804688 11.503906 C 54.386719 11.078125 53.820312 10.863281 53.101562 10.863281 Z M 53.101562 10.863281 " fill-opacity="1" fill-rule="nonzero"/><path fill="#5ce1e6" d="M 68.214844 12.699219 C 68.578125 12.152344 68.96875 11.65625 69.382812 11.207031 C 69.554688 11.011719 69.742188 10.824219 69.941406 10.644531 C 70.140625 10.460938 70.347656 10.304688 70.566406 10.167969 C 70.78125 10.023438 71.003906 9.90625 71.230469 9.820312 C 71.464844 9.734375 71.699219 9.691406 71.929688 9.691406 C 72.425781 9.691406 72.808594 9.839844 73.089844 10.128906 C 73.363281 10.421875 73.503906 10.828125 73.503906 11.351562 C 73.503906 11.667969 73.476562 11.976562 73.425781 12.277344 C 73.375 12.578125 73.269531 12.941406 73.113281 13.367188 L 72.710938 13.367188 C 72.648438 13.078125 72.515625 12.835938 72.308594 12.636719 C 72.101562 12.441406 71.792969 12.339844 71.386719 12.339844 C 71.089844 12.339844 70.792969 12.398438 70.503906 12.507812 C 70.214844 12.621094 69.933594 12.757812 69.65625 12.917969 C 69.386719 13.082031 69.128906 13.257812 68.878906 13.445312 C 68.632812 13.636719 68.414062 13.816406 68.214844 13.984375 L 68.214844 23.246094 C 68.214844 23.371094 68.191406 23.523438 68.148438 23.695312 C 68.113281 23.867188 68.019531 24.027344 67.863281 24.183594 C 67.714844 24.332031 67.492188 24.460938 67.203125 24.570312 C 66.914062 24.679688 66.515625 24.734375 66.003906 24.734375 C 65.492188 24.734375 65.089844 24.675781 64.796875 24.554688 C 64.5 24.4375 64.277344 24.296875 64.121094 24.132812 C 63.972656 23.972656 63.878906 23.804688 63.835938 23.628906 C 63.800781 23.460938 63.785156 23.320312 63.785156 23.21875 L 63.785156 12.199219 C 63.785156 11.925781 63.71875 11.683594 63.589844 11.480469 C 63.457031 11.273438 63.242188 11.171875 62.9375 11.171875 C 62.773438 11.171875 62.628906 11.203125 62.511719 11.261719 C 62.394531 11.320312 62.277344 11.402344 62.144531 11.503906 L 61.835938 11.144531 C 62.058594 10.964844 62.304688 10.789062 62.574219 10.617188 C 62.851562 10.4375 63.148438 10.28125 63.457031 10.152344 C 63.777344 10.019531 64.121094 9.90625 64.484375 9.820312 C 64.855469 9.734375 65.242188 9.691406 65.640625 9.691406 C 66.058594 9.691406 66.410156 9.75 66.707031 9.859375 C 67 9.960938 67.242188 10.101562 67.421875 10.28125 C 67.609375 10.460938 67.761719 10.664062 67.863281 10.886719 C 67.96875 11.101562 68.046875 11.320312 68.097656 11.542969 C 68.15625 11.769531 68.191406 11.980469 68.203125 12.1875 C 68.207031 12.386719 68.214844 12.554688 68.214844 12.699219 Z M 68.214844 12.699219 " fill-opacity="1" fill-rule="nonzero"/><path fill="#5ce1e6" d="M 96.191406 19.59375 C 96.535156 18.710938 96.902344 17.726562 97.285156 16.636719 C 97.675781 15.546875 98.027344 14.445312 98.351562 13.332031 C 98.667969 12.207031 98.933594 11.117188 99.144531 10.0625 C 99.355469 9.007812 99.46875 8.066406 99.46875 7.234375 C 99.46875 6.613281 99.421875 6.085938 99.335938 5.667969 C 99.25 5.25 99.148438 4.902344 99.039062 4.625 C 98.925781 4.34375 98.824219 4.109375 98.738281 3.929688 C 98.652344 3.742188 98.609375 3.578125 98.609375 3.429688 C 98.609375 3.222656 98.664062 3.054688 98.777344 2.914062 C 98.890625 2.78125 99.027344 2.664062 99.195312 2.566406 C 99.355469 2.472656 99.535156 2.40625 99.726562 2.363281 C 99.914062 2.320312 100.097656 2.296875 100.273438 2.296875 C 100.652344 2.296875 100.976562 2.359375 101.234375 2.476562 C 101.5 2.589844 101.691406 2.78125 101.804688 3.054688 C 101.847656 3.203125 101.882812 3.351562 101.910156 3.507812 C 101.941406 3.660156 101.964844 3.816406 101.976562 3.96875 C 101.992188 4.117188 102 4.25 102 4.378906 C 102 4.507812 102 4.609375 102 4.675781 C 102 5.082031 101.929688 5.628906 101.792969 6.320312 C 101.664062 7.015625 101.484375 7.800781 101.261719 8.675781 C 101.035156 9.550781 100.769531 10.488281 100.46875 11.492188 C 100.171875 12.488281 99.863281 13.496094 99.546875 14.511719 C 99.234375 15.527344 98.910156 16.515625 98.582031 17.484375 C 98.253906 18.453125 97.945312 19.347656 97.660156 20.171875 C 97.375 20.992188 97.117188 21.714844 96.894531 22.332031 C 96.667969 22.949219 96.492188 23.410156 96.363281 23.71875 C 96.273438 23.933594 96.167969 24.113281 96.035156 24.246094 C 95.90625 24.386719 95.757812 24.488281 95.59375 24.554688 C 95.4375 24.625 95.261719 24.671875 95.0625 24.699219 C 94.859375 24.722656 94.660156 24.734375 94.453125 24.734375 C 94.0625 24.734375 93.742188 24.699219 93.503906 24.621094 C 93.269531 24.542969 93.074219 24.449219 92.917969 24.335938 C 92.769531 24.21875 92.660156 24.09375 92.59375 23.964844 C 92.53125 23.828125 92.480469 23.707031 92.4375 23.605469 L 86.980469 6.617188 C 86.875 6.304688 86.765625 6.03125 86.65625 5.808594 C 86.539062 5.578125 86.402344 5.394531 86.238281 5.253906 C 86.082031 5.109375 85.890625 5.007812 85.667969 4.945312 C 85.449219 4.878906 85.179688 4.84375 84.859375 4.84375 C 84.589844 4.84375 84.277344 4.90625 83.914062 5.035156 C 83.554688 5.164062 83.21875 5.355469 82.898438 5.601562 C 82.578125 5.851562 82.304688 6.164062 82.078125 6.539062 C 81.863281 6.921875 81.753906 7.355469 81.753906 7.851562 C 81.753906 8.15625 81.792969 8.390625 81.871094 8.574219 C 81.957031 8.753906 82.054688 8.890625 82.15625 8.984375 C 82.261719 9.082031 82.371094 9.136719 82.484375 9.164062 C 82.59375 9.183594 82.671875 9.191406 82.714844 9.191406 C 82.957031 9.191406 83.160156 9.152344 83.316406 9.074219 C 83.46875 8.992188 83.605469 8.902344 83.730469 8.816406 C 83.851562 8.722656 83.96875 8.636719 84.082031 8.558594 C 84.191406 8.476562 84.320312 8.429688 84.472656 8.429688 C 84.582031 8.429688 84.703125 8.464844 84.835938 8.519531 C 84.964844 8.574219 85.082031 8.65625 85.1875 8.765625 C 85.296875 8.878906 85.394531 9.027344 85.472656 9.214844 C 85.550781 9.394531 85.589844 9.621094 85.589844 9.882812 C 85.589844 10.269531 85.515625 10.601562 85.367188 10.875 C 85.21875 11.152344 85.023438 11.382812 84.78125 11.570312 C 84.550781 11.757812 84.28125 11.898438 83.976562 11.992188 C 83.671875 12.078125 83.375 12.121094 83.082031 12.121094 C 82.621094 12.121094 82.210938 12.042969 81.847656 11.878906 C 81.488281 11.714844 81.1875 11.496094 80.9375 11.222656 C 80.691406 10.949219 80.507812 10.625 80.378906 10.257812 C 80.246094 9.890625 80.183594 9.496094 80.183594 9.074219 C 80.183594 8.089844 80.371094 7.230469 80.753906 6.488281 C 81.144531 5.753906 81.65625 5.136719 82.289062 4.636719 C 82.917969 4.144531 83.640625 3.773438 84.445312 3.53125 C 85.257812 3.292969 86.09375 3.171875 86.953125 3.171875 C 87.914062 3.171875 88.699219 3.320312 89.316406 3.609375 C 89.933594 3.890625 90.425781 4.265625 90.800781 4.726562 C 91.179688 5.183594 91.480469 5.691406 91.695312 6.257812 C 91.921875 6.824219 92.117188 7.382812 92.292969 7.929688 Z M 96.191406 19.59375 " fill-opacity="1" fill-rule="nonzero"/><path fill="#5ce1e6" d="M 107.527344 17.960938 C 107.527344 18.261719 107.570312 18.589844 107.65625 18.949219 C 107.75 19.304688 107.882812 19.664062 108.058594 20.03125 C 108.230469 20.390625 108.441406 20.734375 108.695312 21.058594 C 108.957031 21.386719 109.25 21.675781 109.578125 21.933594 C 109.917969 22.191406 110.285156 22.394531 110.683594 22.550781 C 111.089844 22.703125 111.53125 22.78125 112.011719 22.78125 C 112.347656 22.78125 112.660156 22.742188 112.945312 22.664062 C 113.238281 22.589844 113.507812 22.484375 113.75 22.355469 C 114 22.222656 114.246094 22.066406 114.480469 21.894531 C 114.714844 21.714844 114.941406 21.527344 115.167969 21.328125 L 115.53125 21.664062 C 115.3125 21.964844 115.03125 22.289062 114.6875 22.640625 C 114.339844 22.992188 113.921875 23.320312 113.425781 23.628906 C 112.933594 23.9375 112.355469 24.195312 111.699219 24.402344 C 111.046875 24.605469 110.308594 24.710938 109.476562 24.710938 C 108.632812 24.710938 107.816406 24.558594 107.019531 24.261719 C 106.230469 23.960938 105.527344 23.511719 104.914062 22.910156 C 104.296875 22.3125 103.804688 21.566406 103.433594 20.671875 C 103.070312 19.773438 102.886719 18.722656 102.886719 17.523438 C 102.886719 16.65625 102.996094 15.863281 103.210938 15.144531 C 103.4375 14.421875 103.734375 13.773438 104.109375 13.1875 C 104.488281 12.605469 104.929688 12.097656 105.433594 11.660156 C 105.945312 11.222656 106.476562 10.859375 107.03125 10.566406 C 107.59375 10.277344 108.167969 10.058594 108.75 9.910156 C 109.328125 9.765625 109.886719 9.691406 110.425781 9.691406 C 111.132812 9.691406 111.753906 9.769531 112.28125 9.921875 C 112.808594 10.070312 113.246094 10.269531 113.59375 10.527344 C 113.949219 10.785156 114.210938 11.085938 114.386719 11.425781 C 114.558594 11.761719 114.648438 12.113281 114.648438 12.480469 C 114.648438 12.9375 114.519531 13.34375 114.257812 13.703125 C 114 14.058594 113.652344 14.367188 113.21875 14.628906 Z M 110.425781 15.054688 C 110.554688 14.976562 110.660156 14.90625 110.738281 14.835938 C 110.8125 14.765625 110.878906 14.679688 110.929688 14.578125 C 110.984375 14.476562 111.015625 14.351562 111.035156 14.203125 C 111.0625 14.058594 111.074219 13.878906 111.074219 13.664062 C 111.074219 13.425781 111.046875 13.160156 110.996094 12.867188 C 110.945312 12.578125 110.851562 12.300781 110.722656 12.042969 C 110.601562 11.789062 110.445312 11.574219 110.253906 11.402344 C 110.0625 11.230469 109.832031 11.144531 109.566406 11.144531 C 109.21875 11.144531 108.921875 11.246094 108.671875 11.453125 C 108.425781 11.660156 108.222656 11.925781 108.058594 12.25 C 107.902344 12.566406 107.777344 12.9375 107.683594 13.355469 C 107.59375 13.765625 107.527344 14.183594 107.476562 14.601562 C 107.429688 15.023438 107.402344 15.425781 107.398438 15.8125 C 107.386719 16.191406 107.382812 16.515625 107.382812 16.789062 Z M 110.425781 15.054688 " fill-opacity="1" fill-rule="nonzero"/><path fill="#5ce1e6" d="M 125.953125 17.394531 C 125.953125 16.195312 125.894531 15.238281 125.785156 14.527344 C 125.683594 13.804688 125.539062 13.257812 125.355469 12.878906 C 125.175781 12.503906 124.96875 12.257812 124.746094 12.132812 C 124.527344 12.015625 124.304688 11.953125 124.070312 11.953125 C 123.792969 11.953125 123.542969 12.03125 123.328125 12.1875 C 123.113281 12.332031 122.921875 12.5 122.757812 12.6875 C 122.601562 12.878906 122.464844 13.070312 122.355469 13.265625 C 122.25 13.457031 122.160156 13.597656 122.082031 13.691406 L 122.082031 23.21875 C 122.082031 23.347656 122.058594 23.5 122.015625 23.679688 C 121.980469 23.855469 121.886719 24.015625 121.730469 24.171875 C 121.582031 24.324219 121.359375 24.460938 121.070312 24.570312 C 120.78125 24.679688 120.382812 24.734375 119.875 24.734375 C 119.359375 24.734375 118.957031 24.675781 118.664062 24.554688 C 118.367188 24.4375 118.144531 24.296875 117.988281 24.132812 C 117.839844 23.972656 117.746094 23.804688 117.703125 23.628906 C 117.667969 23.460938 117.652344 23.320312 117.652344 23.21875 L 117.652344 12.199219 C 117.652344 11.925781 117.585938 11.683594 117.457031 11.480469 C 117.328125 11.273438 117.109375 11.171875 116.804688 11.171875 C 116.640625 11.171875 116.496094 11.203125 116.378906 11.261719 C 116.265625 11.320312 116.144531 11.402344 116.015625 11.503906 L 115.703125 11.144531 C 115.925781 10.964844 116.171875 10.789062 116.441406 10.617188 C 116.71875 10.4375 117.015625 10.28125 117.328125 10.152344 C 117.644531 10.019531 117.988281 9.90625 118.351562 9.820312 C 118.722656 9.734375 119.109375 9.691406 119.507812 9.691406 C 120.132812 9.691406 120.617188 9.792969 120.964844 10 C 121.308594 10.207031 121.566406 10.449219 121.730469 10.734375 C 121.894531 11.015625 121.996094 11.3125 122.03125 11.621094 C 122.0625 11.929688 122.082031 12.191406 122.082031 12.40625 C 122.4375 11.898438 122.839844 11.445312 123.289062 11.042969 C 123.472656 10.871094 123.675781 10.707031 123.902344 10.550781 C 124.125 10.390625 124.363281 10.242188 124.617188 10.117188 C 124.875 9.988281 125.148438 9.882812 125.433594 9.808594 C 125.722656 9.730469 126.011719 9.691406 126.304688 9.691406 C 126.957031 9.691406 127.53125 9.816406 128.035156 10.0625 C 128.542969 10.316406 128.972656 10.730469 129.320312 11.3125 C 129.664062 11.886719 129.929688 12.65625 130.113281 13.613281 C 130.296875 14.566406 130.386719 15.753906 130.386719 17.175781 C 130.386719 18.546875 130.257812 19.742188 130.007812 20.761719 C 129.757812 21.785156 129.429688 22.648438 129.023438 23.359375 C 128.621094 24.074219 128.167969 24.652344 127.65625 25.109375 C 127.144531 25.5625 126.628906 25.917969 126.109375 26.175781 C 125.597656 26.433594 125.105469 26.605469 124.628906 26.703125 C 124.152344 26.804688 123.738281 26.859375 123.394531 26.871094 L 123.238281 26.292969 C 123.523438 26.222656 123.789062 26.113281 124.03125 25.96875 C 124.273438 25.832031 124.492188 25.625 124.695312 25.339844 C 124.902344 25.0625 125.085938 24.714844 125.238281 24.296875 C 125.394531 23.882812 125.527344 23.355469 125.628906 22.71875 C 125.742188 22.074219 125.824219 21.320312 125.878906 20.453125 C 125.929688 19.578125 125.953125 18.5625 125.953125 17.394531 Z M 125.953125 17.394531 " fill-opacity="1" fill-rule="nonzero"/><path fill="#5ce1e6" d="M 138.039062 10.914062 L 138.039062 21.46875 C 138.039062 21.96875 138.136719 22.316406 138.328125 22.511719 C 138.523438 22.710938 138.792969 22.808594 139.132812 22.808594 C 139.390625 22.808594 139.621094 22.738281 139.820312 22.601562 C 140.019531 22.457031 140.191406 22.292969 140.339844 22.113281 C 140.511719 21.90625 140.660156 21.671875 140.78125 21.40625 L 141.238281 21.609375 C 141.089844 21.914062 140.917969 22.246094 140.71875 22.613281 C 140.515625 22.972656 140.253906 23.308594 139.925781 23.617188 C 139.605469 23.925781 139.199219 24.191406 138.703125 24.402344 C 138.210938 24.605469 137.585938 24.710938 136.832031 24.710938 C 136.40625 24.710938 136 24.644531 135.609375 24.515625 C 135.222656 24.398438 134.875 24.207031 134.570312 23.9375 C 134.265625 23.675781 134.027344 23.339844 133.84375 22.9375 C 133.660156 22.535156 133.570312 22.054688 133.570312 21.496094 L 133.570312 10.914062 L 131.960938 10.914062 L 131.960938 9.882812 C 132.226562 9.882812 132.597656 9.816406 133.078125 9.679688 C 133.5625 9.542969 134.054688 9.316406 134.558594 8.996094 C 135.066406 8.671875 135.535156 8.238281 135.960938 7.699219 C 136.394531 7.152344 136.707031 6.476562 136.898438 5.679688 L 138.039062 5.679688 L 138.039062 9.882812 L 140.394531 9.882812 C 141.164062 9.882812 141.550781 9.761719 141.550781 9.511719 C 141.550781 9.410156 141.5 9.34375 141.40625 9.316406 C 141.308594 9.285156 141.203125 9.242188 141.082031 9.191406 C 140.957031 9.132812 140.851562 9.054688 140.757812 8.957031 C 140.660156 8.863281 140.613281 8.710938 140.613281 8.496094 C 140.613281 8.230469 140.695312 8.019531 140.859375 7.863281 C 141.03125 7.710938 141.253906 7.632812 141.523438 7.632812 C 141.695312 7.632812 141.847656 7.671875 141.976562 7.75 C 142.109375 7.820312 142.214844 7.914062 142.304688 8.03125 C 142.386719 8.15625 142.453125 8.289062 142.5 8.445312 C 142.539062 8.589844 142.5625 8.738281 142.5625 8.894531 C 142.5625 9.511719 142.382812 10.007812 142.015625 10.371094 C 141.652344 10.734375 141.070312 10.914062 140.277344 10.914062 Z M 138.039062 10.914062 " fill-opacity="1" fill-rule="nonzero"/><path fill="#5ce1e6" d="M 155.933594 22.023438 C 155.933594 22.109375 155.9375 22.203125 155.945312 22.304688 C 155.953125 22.402344 155.976562 22.496094 156.011719 22.589844 C 156.054688 22.675781 156.113281 22.75 156.191406 22.808594 C 156.269531 22.867188 156.378906 22.898438 156.519531 22.898438 C 156.699219 22.898438 156.863281 22.832031 157.011719 22.703125 C 157.15625 22.574219 157.289062 22.445312 157.414062 22.304688 L 157.765625 22.601562 C 157.617188 22.808594 157.433594 23.03125 157.21875 23.269531 C 157 23.511719 156.738281 23.742188 156.425781 23.964844 C 156.121094 24.179688 155.769531 24.359375 155.375 24.503906 C 154.984375 24.660156 154.535156 24.734375 154.035156 24.734375 C 153.621094 24.734375 153.25 24.679688 152.929688 24.570312 C 152.617188 24.460938 152.351562 24.3125 152.136719 24.132812 C 151.921875 23.945312 151.761719 23.726562 151.65625 23.476562 C 151.554688 23.21875 151.5 22.949219 151.5 22.664062 L 151.5 22.023438 C 151.023438 22.539062 150.515625 22.988281 149.980469 23.371094 C 149.753906 23.546875 149.511719 23.714844 149.253906 23.875 C 148.992188 24.039062 148.722656 24.183594 148.449219 24.3125 C 148.167969 24.441406 147.878906 24.542969 147.578125 24.621094 C 147.28125 24.699219 146.984375 24.734375 146.679688 24.734375 C 146.109375 24.734375 145.613281 24.632812 145.199219 24.425781 C 144.789062 24.222656 144.460938 23.953125 144.210938 23.617188 C 143.96875 23.28125 143.785156 22.910156 143.664062 22.5 C 143.550781 22.082031 143.496094 21.660156 143.496094 21.238281 L 143.496094 12.40625 C 143.496094 12.320312 143.488281 12.230469 143.484375 12.132812 C 143.472656 12.03125 143.449219 11.933594 143.40625 11.839844 C 143.371094 11.746094 143.316406 11.671875 143.238281 11.621094 C 143.160156 11.5625 143.046875 11.53125 142.910156 11.53125 C 142.738281 11.53125 142.574219 11.59375 142.417969 11.722656 C 142.269531 11.851562 142.136719 11.988281 142.027344 12.121094 L 141.664062 11.8125 C 141.808594 11.617188 141.992188 11.398438 142.210938 11.15625 C 142.425781 10.910156 142.683594 10.679688 142.988281 10.460938 C 143.300781 10.242188 143.65625 10.058594 144.054688 9.910156 C 144.453125 9.765625 144.894531 9.691406 145.378906 9.691406 C 145.804688 9.691406 146.175781 9.75 146.5 9.859375 C 146.816406 9.960938 147.082031 10.109375 147.292969 10.296875 C 147.5 10.484375 147.65625 10.707031 147.757812 10.964844 C 147.871094 11.214844 147.929688 11.480469 147.929688 11.761719 L 147.929688 21.289062 C 147.929688 21.429688 147.949219 21.566406 147.992188 21.703125 C 148.035156 21.839844 148.097656 21.96875 148.175781 22.085938 C 148.257812 22.199219 148.363281 22.289062 148.488281 22.355469 C 148.605469 22.429688 148.753906 22.460938 148.929688 22.460938 C 149.214844 22.460938 149.492188 22.390625 149.773438 22.253906 C 150.050781 22.109375 150.300781 21.9375 150.527344 21.738281 C 150.761719 21.542969 150.957031 21.351562 151.125 21.160156 C 151.296875 20.976562 151.421875 20.832031 151.5 20.738281 L 151.5 12.40625 C 151.5 12.320312 151.496094 12.230469 151.488281 12.132812 C 151.480469 12.03125 151.453125 11.933594 151.410156 11.839844 C 151.375 11.746094 151.320312 11.671875 151.242188 11.621094 C 151.164062 11.5625 151.054688 11.53125 150.917969 11.53125 C 150.742188 11.53125 150.578125 11.59375 150.421875 11.722656 C 150.273438 11.851562 150.144531 11.988281 150.03125 12.121094 L 149.667969 11.8125 C 149.816406 11.617188 149.996094 11.398438 150.214844 11.15625 C 150.429688 10.910156 150.6875 10.679688 150.996094 10.460938 C 151.304688 10.242188 151.660156 10.058594 152.058594 9.910156 C 152.457031 9.765625 152.898438 9.691406 153.386719 9.691406 C 153.808594 9.691406 154.183594 9.75 154.503906 9.859375 C 154.820312 9.960938 155.089844 10.109375 155.296875 10.296875 C 155.503906 10.484375 155.660156 10.707031 155.765625 10.964844 C 155.875 11.214844 155.933594 11.480469 155.933594 11.761719 Z M 155.933594 22.023438 " fill-opacity="1" fill-rule="nonzero"/><path fill="#5ce1e6" d="M 164.328125 12.699219 C 164.691406 12.152344 165.078125 11.65625 165.496094 11.207031 C 165.667969 11.011719 165.851562 10.824219 166.054688 10.644531 C 166.253906 10.460938 166.460938 10.304688 166.679688 10.167969 C 166.894531 10.023438 167.113281 9.90625 167.339844 9.820312 C 167.574219 9.734375 167.808594 9.691406 168.042969 9.691406 C 168.535156 9.691406 168.921875 9.839844 169.199219 10.128906 C 169.476562 10.421875 169.617188 10.828125 169.617188 11.351562 C 169.617188 11.667969 169.589844 11.976562 169.539062 12.277344 C 169.484375 12.578125 169.382812 12.941406 169.226562 13.367188 L 168.824219 13.367188 C 168.761719 13.078125 168.628906 12.835938 168.417969 12.636719 C 168.210938 12.441406 167.902344 12.339844 167.496094 12.339844 C 167.203125 12.339844 166.90625 12.398438 166.613281 12.507812 C 166.328125 12.621094 166.042969 12.757812 165.769531 12.917969 C 165.5 13.082031 165.238281 13.257812 164.988281 13.445312 C 164.746094 13.636719 164.523438 13.816406 164.328125 13.984375 L 164.328125 23.246094 C 164.328125 23.371094 164.304688 23.523438 164.261719 23.695312 C 164.226562 23.867188 164.132812 24.027344 163.976562 24.183594 C 163.824219 24.332031 163.605469 24.460938 163.3125 24.570312 C 163.027344 24.679688 162.628906 24.734375 162.117188 24.734375 C 161.605469 24.734375 161.199219 24.675781 160.910156 24.554688 C 160.613281 24.4375 160.390625 24.296875 160.234375 24.132812 C 160.082031 23.972656 159.988281 23.804688 159.945312 23.628906 C 159.910156 23.460938 159.894531 23.320312 159.894531 23.21875 L 159.894531 12.199219 C 159.894531 11.925781 159.828125 11.683594 159.699219 11.480469 C 159.570312 11.273438 159.351562 11.171875 159.050781 11.171875 C 158.882812 11.171875 158.742188 11.203125 158.621094 11.261719 C 158.507812 11.320312 158.386719 11.402344 158.257812 11.503906 L 157.945312 11.144531 C 158.167969 10.964844 158.417969 10.789062 158.6875 10.617188 C 158.960938 10.4375 159.257812 10.28125 159.570312 10.152344 C 159.886719 10.019531 160.234375 9.90625 160.597656 9.820312 C 160.96875 9.734375 161.355469 9.691406 161.753906 9.691406 C 162.167969 9.691406 162.523438 9.75 162.820312 9.859375 C 163.109375 9.960938 163.351562 10.101562 163.535156 10.28125 C 163.722656 10.460938 163.871094 10.664062 163.976562 10.886719 C 164.078125 11.101562 164.15625 11.320312 164.210938 11.542969 C 164.269531 11.769531 164.304688 11.980469 164.3125 12.1875 C 164.320312 12.386719 164.328125 12.554688 164.328125 12.699219 Z M 164.328125 12.699219 " fill-opacity="1" fill-rule="nonzero"/><g clip-path="url(#id1)"><path fill="#5ce1e6" d="M 177.9375 17.109375 C 177.9375 16.871094 177.859375 16.691406 177.703125 16.570312 C 177.550781 16.441406 177.355469 16.378906 177.117188 16.378906 C 176.777344 16.378906 176.457031 16.453125 176.15625 16.609375 C 175.851562 16.761719 175.582031 16.992188 175.351562 17.289062 C 175.121094 17.582031 174.941406 17.945312 174.804688 18.382812 C 174.675781 18.816406 174.609375 19.308594 174.609375 19.875 C 174.609375 20.433594 174.648438 20.890625 174.726562 21.25 C 174.808594 21.609375 174.925781 21.902344 175.0625 22.113281 C 175.199219 22.328125 175.363281 22.480469 175.542969 22.5625 C 175.726562 22.648438 175.914062 22.691406 176.117188 22.691406 C 176.367188 22.691406 176.601562 22.628906 176.816406 22.5 C 177.042969 22.371094 177.238281 22.210938 177.402344 22.011719 C 177.566406 21.804688 177.695312 21.582031 177.792969 21.339844 C 177.886719 21.09375 177.9375 20.847656 177.9375 20.59375 Z M 175.648438 10.863281 C 175.316406 10.863281 175.015625 10.898438 174.738281 10.976562 C 174.460938 11.054688 174.21875 11.152344 174.011719 11.261719 C 173.808594 11.371094 173.652344 11.5 173.53125 11.644531 C 173.417969 11.785156 173.363281 11.914062 173.363281 12.03125 C 173.363281 12.179688 173.433594 12.28125 173.582031 12.339844 C 173.738281 12.402344 173.90625 12.476562 174.089844 12.558594 C 174.269531 12.636719 174.433594 12.75 174.582031 12.894531 C 174.730469 13.039062 174.804688 13.265625 174.804688 13.574219 C 174.804688 13.773438 174.757812 13.957031 174.675781 14.128906 C 174.597656 14.292969 174.484375 14.4375 174.347656 14.566406 C 174.210938 14.691406 174.042969 14.796875 173.855469 14.875 C 173.671875 14.945312 173.480469 14.976562 173.285156 14.976562 C 172.742188 14.976562 172.308594 14.796875 171.972656 14.4375 C 171.640625 14.070312 171.476562 13.585938 171.476562 12.984375 C 171.476562 12.410156 171.625 11.914062 171.933594 11.503906 C 172.242188 11.085938 172.648438 10.742188 173.140625 10.476562 C 173.632812 10.210938 174.191406 10.011719 174.816406 9.882812 C 175.445312 9.753906 176.078125 9.691406 176.699219 9.691406 C 177.445312 9.691406 178.160156 9.773438 178.84375 9.933594 C 179.527344 10.097656 180.132812 10.355469 180.652344 10.707031 C 181.179688 11.0625 181.601562 11.503906 181.914062 12.042969 C 182.222656 12.585938 182.378906 13.238281 182.378906 14.011719 L 182.378906 22.074219 C 182.378906 22.160156 182.382812 22.261719 182.394531 22.371094 C 182.398438 22.472656 182.421875 22.570312 182.457031 22.652344 C 182.5 22.738281 182.5625 22.8125 182.640625 22.871094 C 182.71875 22.921875 182.828125 22.949219 182.976562 22.949219 C 183.140625 22.949219 183.296875 22.882812 183.445312 22.753906 C 183.601562 22.628906 183.734375 22.5 183.847656 22.371094 L 184.210938 22.664062 C 184.0625 22.863281 183.890625 23.082031 183.691406 23.320312 C 183.492188 23.5625 183.246094 23.785156 182.953125 23.988281 C 182.664062 24.195312 182.328125 24.371094 181.9375 24.515625 C 181.554688 24.660156 181.121094 24.734375 180.636719 24.734375 C 180.03125 24.734375 179.488281 24.558594 179.015625 24.207031 C 178.546875 23.847656 178.238281 23.296875 178.089844 22.550781 C 177.785156 22.960938 177.46875 23.304688 177.128906 23.578125 C 176.796875 23.855469 176.460938 24.078125 176.117188 24.246094 C 175.769531 24.421875 175.417969 24.542969 175.0625 24.621094 C 174.714844 24.699219 174.367188 24.734375 174.011719 24.734375 C 173.550781 24.734375 173.105469 24.660156 172.671875 24.515625 C 172.238281 24.371094 171.847656 24.144531 171.503906 23.835938 C 171.164062 23.527344 170.890625 23.128906 170.683594 22.640625 C 170.484375 22.144531 170.386719 21.539062 170.386719 20.828125 C 170.386719 19.960938 170.558594 19.253906 170.90625 18.707031 C 171.25 18.148438 171.703125 17.683594 172.257812 17.304688 C 172.820312 16.925781 173.457031 16.605469 174.179688 16.339844 C 174.898438 16.074219 175.628906 15.796875 176.375 15.503906 C 176.9375 15.28125 177.34375 14.957031 177.597656 14.527344 C 177.859375 14.089844 177.988281 13.644531 177.988281 13.1875 C 177.988281 12.488281 177.773438 11.925781 177.351562 11.503906 C 176.933594 11.078125 176.367188 10.863281 175.648438 10.863281 Z M 175.648438 10.863281 " fill-opacity="1" fill-rule="nonzero"/></g></svg>