<svg xmlns="http://www.w3.org/2000/svg" xmlns:xlink="http://www.w3.org/1999/xlink" width="300" zoomAndPan="magnify" viewBox="0 0 224.87999 37.5" height="50" preserveAspectRatio="xMidYMid meet" version="1.0"><defs><g/><clipPath id="id1"><path d="M 7 0 L 34 0 L 34 37.007812 L 7 37.007812 Z M 7 0 " clip-rule="nonzero"/></clipPath><clipPath id="id2"><path d="M 34 5 L 58 5 L 58 37.007812 L 34 37.007812 Z M 34 5 " clip-rule="nonzero"/></clipPath><clipPath id="id3"><path d="M 97 0 L 134 0 L 134 37.007812 L 97 37.007812 Z M 97 0 " clip-rule="nonzero"/></clipPath><clipPath id="id4"><path d="M 145 5 L 162 5 L 162 37.007812 L 145 37.007812 Z M 145 5 " clip-rule="nonzero"/></clipPath></defs><g clip-path="url(#id1)"><g fill="#ffcf00" fill-opacity="1"><g transform="translate(7.329746, 45.29597)"><g><path d="M 13.226562 -57.34375 C 7.984375 -56.160156 5.242188 -50.429688 3.417969 -45.902344 C 1.429688 -40.882812 0.414062 -35.4375 0.488281 -30.023438 C 0.5625 -24.988281 1.445312 -19.089844 4.902344 -15.199219 C 6.59375 -13.300781 9.1875 -12.570312 11.574219 -13.527344 C 14.015625 -14.503906 15.257812 -17.230469 16.160156 -19.539062 C 17.230469 -22.285156 17.832031 -25.214844 17.941406 -28.164062 C 18.074219 -31.285156 18.019531 -32.84375 17.71875 -34.722656 C 17.210938 -37.820312 14.074219 -37.203125 14.148438 -36.621094 C 14.390625 -34.648438 14.523438 -32.597656 14.503906 -30.625 C 14.46875 -28.410156 14.355469 -26.230469 13.902344 -24.070312 C 13.472656 -22.019531 12.796875 -20.011719 11.875 -18.113281 C 11.480469 -17.285156 11.027344 -16.421875 10.390625 -15.746094 C 10.183594 -15.539062 9.675781 -14.9375 9.355469 -14.957031 C 9.054688 -14.976562 8.359375 -15.800781 8.136719 -16.027344 C 5.261719 -19.203125 4.414062 -24.144531 4.152344 -28.257812 C 3.890625 -32.710938 4.339844 -37.21875 5.5625 -41.523438 C 6.707031 -45.582031 8.453125 -50.054688 11.234375 -53.285156 C 12.402344 -54.636719 14.242188 -56.292969 16.101562 -55.40625 C 18.054688 -54.507812 19.277344 -52.234375 20.121094 -50.371094 C 22 -46.277344 22.488281 -41.671875 22.753906 -37.21875 C 23.015625 -32.578125 22.882812 -27.921875 22.265625 -23.316406 C 21.589844 -18.394531 20.574219 -12.777344 18.039062 -8.4375 C 16.855469 -6.425781 14.691406 -4.226562 12.417969 -6.070312 C 10.539062 -7.628906 9.996094 -9.695312 9.300781 -11.929688 C 8.945312 -13.058594 5.1875 -13.300781 5.617188 -11.894531 C 6.40625 -9.414062 7.269531 -6.800781 9.339844 -5.074219 C 11.199219 -3.511719 13.679688 -3.042969 16.007812 -3.625 C 21.496094 -5.015625 23.183594 -11.273438 24.425781 -16.0625 C 25.851562 -21.625 26.492188 -27.375 26.472656 -33.105469 C 26.453125 -38.574219 26.117188 -44.339844 24.179688 -49.507812 C 22.414062 -54.222656 18.769531 -58.601562 13.226562 -57.34375 Z M 13.226562 -57.34375 "/></g></g></g></g><g clip-path="url(#id2)"><g fill="#ffcf00" fill-opacity="1"><g transform="translate(35.472306, 45.29597)"><g><path d="M 17.625 -35.324219 C 18.039062 -31.601562 15.257812 -13.207031 16.589844 -8.90625 C 17.25 -6.464844 18.75 -4.640625 21.496094 -5.015625 C 21.683594 -5.054688 22.472656 -5.410156 22.113281 -5.617188 C 16.664062 -8.945312 21.417969 -28.089844 20.988281 -36.113281 C 20.761719 -37.519531 18.132812 -39.324219 17.042969 -38.328125 C 15.574219 -37.015625 14.675781 -34.027344 14.261719 -32.730469 C 13.019531 -28.820312 11.875 -24.59375 11.5 -20.421875 C 11.386719 -20.929688 11.3125 -21.476562 11.253906 -22 C 11.066406 -24.238281 11.386719 -26.472656 11.742188 -28.691406 C 11.910156 -29.816406 12.101562 -30.925781 12.230469 -32.054688 C 12.34375 -32.992188 12.605469 -33.574219 12.308594 -34.496094 C 11.816406 -36.035156 9.507812 -36.882812 8.285156 -36.074219 C 7.476562 -35.53125 5.1875 -30.082031 3.644531 -25.007812 C 3.417969 -24.292969 3.230469 -23.597656 3.042969 -22.882812 C 3.136719 -24.144531 3.269531 -25.402344 3.4375 -26.679688 C 3.625 -28.164062 4.152344 -30.363281 4.191406 -31.566406 C 4.226562 -32.671875 1.371094 -32.449219 0.902344 -31.546875 C 0.09375 -30.25 -0.527344 -23.355469 -0.640625 -21.4375 C -0.75 -19.632812 -0.769531 -17.8125 -0.65625 -16.007812 C -0.601562 -15.050781 -0.488281 -14.109375 -0.355469 -13.171875 C -0.1875 -12.042969 -0.132812 -11.910156 0.882812 -11.347656 C 1.371094 -11.066406 2.253906 -11.121094 2.6875 -11.5 C 3.496094 -12.230469 3.34375 -12.476562 3.195312 -13.507812 C 3.136719 -13.847656 3.101562 -14.183594 3.082031 -14.523438 C 3.71875 -17.8125 4.398438 -21.082031 5.335938 -24.273438 C 5.882812 -26.097656 6.519531 -27.902344 7.253906 -29.648438 C 7.589844 -30.4375 7.929688 -31.246094 8.34375 -31.980469 C 8.453125 -32.183594 8.605469 -32.449219 8.773438 -32.710938 C 8.453125 -29.949219 7.929688 -25.214844 7.890625 -23.46875 C 7.816406 -19.785156 8.265625 -16.402344 11.855469 -16.328125 C 12.15625 -16.328125 12.53125 -16.402344 12.777344 -16.589844 C 12.964844 -16.683594 13.113281 -16.816406 13.132812 -16.964844 C 13.773438 -20.628906 14.109375 -24.292969 15.011719 -27.921875 C 15.425781 -29.535156 15.859375 -31.152344 16.421875 -32.730469 C 16.757812 -33.6875 17.097656 -34.515625 17.625 -35.324219 Z M 17.625 -35.324219 "/></g></g></g></g><g fill="#ffcf00" fill-opacity="1"><g transform="translate(59.970235, 45.29597)"><g><path d="M 15.050781 -26.453125 C 14.675781 -23.878906 14.035156 -21.402344 13 -19.03125 C 12.511719 -17.90625 11.96875 -16.816406 11.273438 -15.800781 C 11.066406 -15.464844 10.824219 -15.144531 10.558594 -14.824219 C 10.484375 -15.070312 10.410156 -15.332031 10.390625 -15.59375 C 9.375 -20.761719 9.84375 -26.171875 10.238281 -31.394531 C 10.296875 -32.222656 8.832031 -32.46875 7.761719 -32.183594 C 7.703125 -32.261719 7.664062 -32.316406 7.609375 -32.375 C 6.292969 -33.820312 3.703125 -33.6875 2.253906 -32.523438 C 0.355469 -31.019531 -0.507812 -27.976562 -1.109375 -25.757812 C -1.804688 -23.167969 -2.125 -20.515625 -1.972656 -17.847656 C -1.859375 -15.820312 -1.617188 -13.113281 0.5625 -12.25 C 3.042969 -11.292969 4.621094 -13.152344 5.542969 -15.199219 C 5.882812 -15.953125 6.179688 -16.742188 6.425781 -17.546875 C 6.613281 -15.5 7.160156 -13.394531 9 -12.890625 C 12.023438 -12.0625 13.019531 -14.84375 13.828125 -17.117188 C 14.898438 -20.105469 15.5 -23.28125 15.875 -26.417969 C 15.894531 -26.585938 15.070312 -26.640625 15.050781 -26.453125 Z M 4.808594 -21.605469 C 4.433594 -20.234375 4.039062 -18.863281 3.550781 -17.53125 C 3.34375 -16.984375 2.800781 -15.386719 2.140625 -14.46875 C 1.917969 -15.070312 1.785156 -15.839844 1.746094 -16.140625 C 1.578125 -17.152344 1.539062 -18.207031 1.539062 -19.238281 C 1.539062 -21.550781 1.878906 -23.878906 2.554688 -26.097656 C 2.855469 -27.113281 3.230469 -28.109375 3.683594 -29.085938 C 3.890625 -29.554688 4.113281 -30.023438 4.359375 -30.457031 C 4.507812 -30.71875 4.660156 -31 4.847656 -31.285156 C 4.960938 -31.132812 5.089844 -30.984375 5.1875 -30.832031 C 5.46875 -30.4375 5.675781 -29.988281 5.917969 -29.574219 C 6.050781 -29.328125 6.164062 -29.085938 6.257812 -28.839844 C 5.863281 -26.417969 5.484375 -23.972656 4.808594 -21.605469 Z M 4.808594 -21.605469 "/></g></g></g><g fill="#ffcf00" fill-opacity="1"><g transform="translate(75.131153, 45.29597)"><g><path d="M 8.90625 -24.144531 C 11.066406 -26.265625 11.421875 -33.050781 8.359375 -33.21875 C 5.316406 -33.386719 3.664062 -29.367188 2.386719 -26.078125 C 2.234375 -25.703125 2.105469 -25.347656 1.972656 -24.96875 C 1.992188 -25.964844 2.027344 -26.980469 2.066406 -27.957031 C 2.160156 -29.6875 2.140625 -31.132812 2.519531 -33.066406 C 2.761719 -34.269531 0.0546875 -34.234375 -0.46875 -33.351562 C -1.070312 -32.316406 -1.296875 -30.15625 -1.390625 -28.484375 C -1.503906 -26.640625 -1.539062 -24.761719 -1.539062 -22.921875 C -1.523438 -19.203125 -1.351562 -15.5 -1.164062 -11.78125 C -1.109375 -10.523438 2.234375 -10.050781 2.273438 -11.328125 C 2.273438 -11.5 2.292969 -11.6875 2.292969 -11.855469 L 2.3125 -11.855469 C 2.3125 -11.949219 2.292969 -12.082031 2.292969 -12.195312 C 2.3125 -14.804688 2.179688 -17.699219 2.628906 -20.199219 C 3.25 -26.359375 5.785156 -31.320312 7.796875 -30.589844 C 8.867188 -30.195312 8.097656 -24.238281 6.765625 -24.199219 C 6.085938 -24.179688 5.898438 -24.933594 6.199219 -25.382812 C 6.558594 -25.910156 5.054688 -25.890625 4.847656 -25.757812 C 4.414062 -25.195312 4.492188 -23.957031 5.335938 -23.390625 C 6.613281 -22.527344 7.761719 -22.996094 8.90625 -24.144531 Z M 8.90625 -24.144531 "/></g></g></g><g clip-path="url(#id3)"><g fill="#ffcf00" fill-opacity="1"><g transform="translate(97.017729, 45.29597)"><g><path d="M 22.207031 -12.25 C 22.378906 -16.515625 22.339844 -20.800781 22.078125 -25.0625 C 21.625 -32.769531 20.78125 -40.808594 18 -48.082031 C 16.890625 -50.957031 15.238281 -55.351562 12.210938 -56.6875 C 9.355469 -57.945312 6.539062 -57.023438 4.714844 -53.8125 C 2.949219 -50.691406 1.878906 -46.933594 1.351562 -43.363281 C 0.769531 -39.550781 0.921875 -35.625 1.765625 -31.867188 C 2.125 -30.304688 3.023438 -28.503906 4.285156 -28.222656 C 5.582031 -27.9375 6.859375 -28.484375 7.835938 -29.328125 C 9.242188 -30.550781 10.164062 -32.429688 10.992188 -34.0625 C 11.988281 -36.019531 12.796875 -38.007812 13.226562 -40.171875 C 13.320312 -40.582031 12.15625 -40.546875 12.007812 -40.226562 C 10.972656 -37.164062 9.734375 -34.101562 7.929688 -31.359375 C 7.140625 -30.15625 4.902344 -28.050781 4.039062 -30.589844 C 3.511719 -32.148438 3.269531 -33.894531 3.101562 -35.53125 C 2.78125 -38.667969 2.988281 -41.84375 3.550781 -44.941406 C 4.472656 -49.941406 6.800781 -54.902344 8.945312 -55.277344 C 9.902344 -55.445312 10.203125 -55.164062 10.824219 -54.488281 C 11.875 -53.304688 12.644531 -51.746094 13.339844 -50.316406 C 14.65625 -47.628906 15.59375 -44.773438 16.269531 -41.878906 C 17.753906 -35.605469 18.355469 -29.085938 18.621094 -22.660156 C 18.769531 -18.789062 18.75 -14.898438 18.5625 -11.011719 C 18.46875 -9.074219 18.335938 -7.140625 18.148438 -5.203125 C 17.980469 -3.382812 17.71875 -1.617188 17.753906 0.113281 C 17.773438 0.976562 19.539062 0.882812 20.105469 0.207031 C 20.574219 -0.375 22.734375 -4.660156 23.335938 -5.84375 C 24.519531 -8.117188 25.628906 -10.429688 26.679688 -12.777344 C 28.710938 -17.285156 30.476562 -21.90625 31.882812 -26.660156 C 34.757812 -36.375 36.488281 -47.121094 35.042969 -57.230469 C 34.835938 -58.566406 31.246094 -58.359375 31.433594 -57.15625 C 32.296875 -52.0625 32.730469 -47.007812 32.429688 -41.84375 C 32.128906 -36.601562 31.152344 -31.433594 29.703125 -26.378906 C 28.351562 -21.644531 26.585938 -17.003906 24.574219 -12.511719 C 23.710938 -10.578125 22.808594 -8.679688 21.871094 -6.800781 C 22.019531 -8.605469 22.132812 -10.429688 22.207031 -12.25 Z M 22.207031 -12.25 "/></g></g></g></g><g fill="#ffcf00" fill-opacity="1"><g transform="translate(132.487125, 45.29597)"><g><path d="M 7.628906 -23.28125 C 9.28125 -26.058594 12.0625 -34.890625 6.277344 -34.871094 C 1.144531 -34.851562 -0.921875 -27.695312 -1.144531 -23.65625 C -1.296875 -21.15625 -1.296875 -18.207031 -0.226562 -15.894531 C 0.882812 -13.527344 3.25 -12.402344 5.785156 -12.589844 C 8.472656 -12.777344 10.765625 -15.257812 12.289062 -18.46875 C 13.492188 -20.96875 14.582031 -23.957031 15.050781 -25.964844 C 15.21875 -26.699219 14.261719 -26.753906 14.128906 -25.984375 C 13.773438 -24.011719 12.101562 -20.253906 11.59375 -19.410156 C 10.410156 -17.472656 8.585938 -14.582031 6.164062 -14.675781 C 3.382812 -14.785156 2.519531 -17.492188 2.328125 -20.234375 C 2.480469 -20.214844 2.628906 -20.179688 2.78125 -20.179688 C 4.980469 -19.992188 6.574219 -21.511719 7.628906 -23.28125 Z M 2.292969 -21.644531 C 2.292969 -23.167969 2.441406 -24.558594 2.519531 -25.363281 C 3.042969 -30.71875 5.582031 -34.007812 6.707031 -33.351562 C 7.609375 -32.84375 7.628906 -31.078125 7.609375 -30.210938 C 7.570312 -27.957031 6.875 -25.703125 5.769531 -23.730469 C 5.1875 -22.714844 4.039062 -20.742188 2.535156 -21.496094 C 2.441406 -21.53125 2.367188 -21.589844 2.292969 -21.644531 Z M 2.292969 -21.644531 "/></g></g></g><g clip-path="url(#id4)"><g fill="#ffcf00" fill-opacity="1"><g transform="translate(146.765059, 45.29597)"><g><path d="M 14.242188 -7.589844 C 9.488281 -9.621094 13.113281 -25.269531 13.960938 -32.277344 C 14.109375 -33.558594 14.222656 -35.980469 13.601562 -37.597656 C 13.359375 -38.199219 11.5 -39.398438 10.671875 -39.25 C 9.300781 -38.988281 8.417969 -37.503906 7.816406 -36.148438 C 6.765625 -33.746094 5.75 -31.320312 4.960938 -28.820312 C 4.097656 -26.078125 3.511719 -23.261719 2.855469 -20.441406 C 2.835938 -20.894531 2.800781 -21.34375 2.78125 -21.796875 C 2.613281 -24.894531 2.613281 -27.789062 2.816406 -31.152344 C 2.894531 -32.449219 0.433594 -31.921875 0.167969 -31.1875 C -0.375 -29.648438 -0.902344 -25.589844 -0.882812 -21.90625 C -0.84375 -18.957031 -0.75 -15.558594 0.734375 -12.90625 C 1.128906 -12.195312 2.949219 -12.289062 3.136719 -13.132812 C 4.132812 -17.472656 5.242188 -21.851562 6.40625 -26.136719 C 6.988281 -28.222656 7.609375 -30.304688 8.453125 -32.296875 C 8.847656 -33.21875 9.242188 -34.121094 9.789062 -34.984375 C 9.902344 -35.171875 10.089844 -35.492188 10.296875 -35.847656 C 10.296875 -35.773438 10.296875 -35.699219 10.316406 -35.625 C 10.371094 -34.683594 10.371094 -33.726562 10.371094 -32.769531 C 7.796875 -16.703125 7.910156 -10.128906 9.808594 -7.328125 C 10.691406 -6.292969 12.042969 -5.882812 13.378906 -6.050781 C 14.148438 -6.144531 15.179688 -6.425781 15.050781 -7.363281 C 14.992188 -7.703125 14.449219 -7.648438 14.242188 -7.589844 Z M 14.242188 -7.589844 "/></g></g></g></g><g fill="#ffcf00" fill-opacity="1"><g transform="translate(162.921669, 45.29597)"><g><path d="M 4.246094 -41.957031 C 4.433594 -41.9375 4.601562 -41.917969 4.792969 -41.898438 C 6.085938 -41.75 7.214844 -41.65625 8.210938 -41.597656 C 9.207031 -41.542969 9.84375 -41.636719 10.164062 -41.84375 C 10.410156 -42.050781 10.597656 -42.257812 10.691406 -42.460938 C 10.785156 -42.652344 10.839844 -42.839844 10.859375 -43.027344 C 10.878906 -43.195312 10.859375 -43.363281 10.824219 -43.496094 C 10.765625 -43.628906 10.726562 -43.722656 10.671875 -43.816406 C 10.652344 -43.835938 10.632812 -43.851562 10.632812 -43.890625 C 10.617188 -43.890625 10.617188 -43.910156 10.617188 -43.910156 C 10.597656 -43.910156 10.597656 -43.910156 10.597656 -43.929688 C 9.808594 -43.402344 8.699219 -43.140625 7.269531 -43.140625 C 6.371094 -43.121094 5.449219 -43.15625 4.507812 -43.214844 C 4.660156 -43.816406 4.847656 -44.511719 5.054688 -45.28125 C 5.429688 -46.652344 5.863281 -47.949219 6.351562 -49.171875 C 6.839844 -50.390625 7.328125 -51.21875 7.835938 -51.648438 C 7.910156 -51.707031 7.949219 -51.800781 7.964844 -51.894531 C 7.964844 -51.988281 7.929688 -52.0625 7.871094 -52.140625 C 7.628906 -52.363281 7.328125 -52.515625 6.96875 -52.589844 C 6.613281 -52.644531 6.238281 -52.628906 5.882812 -52.496094 C 5.335938 -52.269531 4.753906 -51.6875 4.097656 -50.75 C 3.4375 -49.808594 2.707031 -48.191406 1.878906 -45.902344 C 1.597656 -45.09375 1.351562 -44.285156 1.109375 -43.476562 C 0.542969 -43.496094 0.0195312 -43.515625 -0.449219 -43.535156 C -1.410156 -43.535156 -2.066406 -43.382812 -2.40625 -43.0625 C -2.5 -42.933594 -2.574219 -42.761719 -2.59375 -42.59375 C -2.628906 -42.40625 -2.648438 -42.238281 -2.628906 -42.105469 C -2.613281 -41.972656 -2.59375 -41.898438 -2.535156 -41.917969 C -1.859375 -42.199219 -0.84375 -42.3125 0.527344 -42.257812 C 0.601562 -42.257812 0.695312 -42.257812 0.769531 -42.238281 C 0.246094 -40.1875 -0.167969 -38.085938 -0.433594 -35.941406 C -0.882812 -32.46875 -1.070312 -29.066406 -0.996094 -25.722656 C -0.996094 -24.613281 -0.921875 -23.242188 -0.769531 -21.570312 C -0.640625 -19.898438 -0.339844 -18.226562 0.132812 -16.589844 C 0.601562 -14.9375 1.316406 -13.601562 2.273438 -12.570312 C 3.230469 -11.535156 4.546875 -11.121094 6.179688 -11.3125 C 7.066406 -11.460938 7.796875 -12.101562 8.417969 -13.207031 C 9.039062 -14.316406 9.5625 -15.707031 10.015625 -17.417969 C 10.464844 -19.109375 10.898438 -20.929688 11.292969 -22.867188 C 11.441406 -23.5625 11.59375 -24.257812 11.742188 -24.953125 C 11.800781 -25.214844 11.78125 -25.421875 11.667969 -25.589844 C 11.554688 -25.742188 11.421875 -25.796875 11.253906 -25.777344 C 11.085938 -25.757812 10.953125 -25.589844 10.859375 -25.308594 C 10.765625 -24.988281 10.597656 -24.386719 10.390625 -23.484375 C 10.128906 -22.285156 9.789062 -20.910156 9.375 -19.351562 C 8.960938 -17.792969 8.492188 -16.421875 7.964844 -15.238281 C 7.421875 -14.054688 6.859375 -13.414062 6.238281 -13.320312 C 5.84375 -13.300781 5.5625 -13.394531 5.355469 -13.566406 C 5.148438 -13.734375 4.960938 -13.980469 4.773438 -14.296875 C 4.152344 -15.371094 3.703125 -16.515625 3.402344 -17.71875 C 2.78125 -20.386719 2.480469 -23.074219 2.535156 -25.796875 C 2.628906 -30.0625 2.761719 -32.75 2.96875 -33.894531 C 3.289062 -36.601562 3.71875 -39.289062 4.246094 -41.957031 Z M 4.246094 -41.957031 "/></g></g></g><g fill="#ffcf00" fill-opacity="1"><g transform="translate(173.686486, 45.29597)"><g><path d="M 16.289062 -23.972656 C 15.953125 -20.835938 15.050781 -17.699219 14.074219 -14.691406 C 13.621094 -13.320312 13.132812 -12.175781 12.34375 -10.972656 C 12.34375 -10.992188 12.34375 -10.992188 12.324219 -11.011719 C 12.175781 -11.234375 12.042969 -11.480469 11.949219 -11.722656 C 11.6875 -12.324219 11.59375 -13 11.480469 -13.660156 C 10.464844 -19.523438 11.855469 -25.984375 11.574219 -31.882812 C 11.5 -33.144531 8.042969 -32.484375 8.15625 -31.300781 C 8.171875 -31.132812 8.171875 -30.984375 8.171875 -30.8125 C 8.136719 -27.449219 5.636719 -15.839844 4.453125 -15.40625 C 3.15625 -14.9375 2.6875 -17.753906 2.6875 -17.753906 C 2.347656 -19.144531 2.199219 -20.59375 2.125 -22.019531 C 2.011719 -23.617188 2.046875 -30.15625 2.011719 -31.773438 C 1.992188 -33.144531 -0.148438 -32.597656 -0.675781 -31.941406 C -1.429688 -31.039062 -1.390625 -28.183594 -1.410156 -25.929688 C -1.445312 -23.9375 -1.410156 -21.90625 -1.183594 -19.933594 C -0.84375 -16.964844 0.375 -12.417969 4.078125 -13.621094 C 6.21875 -14.316406 6.613281 -17.738281 7.742188 -21.269531 C 7.703125 -20.667969 7.664062 -20.046875 7.648438 -19.425781 C 7.589844 -17.472656 7.648438 -15.519531 8.003906 -13.585938 C 8.25 -12.230469 8.511719 -10.597656 9.789062 -9.808594 C 12.289062 -8.304688 13.980469 -10.371094 14.730469 -12.683594 C 15.96875 -16.441406 17.117188 -20.066406 16.929688 -23.992188 C 16.929688 -24.085938 16.308594 -24.070312 16.289062 -23.972656 Z M 16.289062 -23.972656 "/></g></g></g><g fill="#ffcf00" fill-opacity="1"><g transform="translate(189.955816, 45.29597)"><g><path d="M 8.90625 -24.144531 C 11.066406 -26.265625 11.421875 -33.050781 8.359375 -33.21875 C 5.316406 -33.386719 3.664062 -29.367188 2.386719 -26.078125 C 2.234375 -25.703125 2.105469 -25.347656 1.972656 -24.96875 C 1.992188 -25.964844 2.027344 -26.980469 2.066406 -27.957031 C 2.160156 -29.6875 2.140625 -31.132812 2.519531 -33.066406 C 2.761719 -34.269531 0.0546875 -34.234375 -0.46875 -33.351562 C -1.070312 -32.316406 -1.296875 -30.15625 -1.390625 -28.484375 C -1.503906 -26.640625 -1.539062 -24.761719 -1.539062 -22.921875 C -1.523438 -19.203125 -1.351562 -15.5 -1.164062 -11.78125 C -1.109375 -10.523438 2.234375 -10.050781 2.273438 -11.328125 C 2.273438 -11.5 2.292969 -11.6875 2.292969 -11.855469 L 2.3125 -11.855469 C 2.3125 -11.949219 2.292969 -12.082031 2.292969 -12.195312 C 2.3125 -14.804688 2.179688 -17.699219 2.628906 -20.199219 C 3.25 -26.359375 5.785156 -31.320312 7.796875 -30.589844 C 8.867188 -30.195312 8.097656 -24.238281 6.765625 -24.199219 C 6.085938 -24.179688 5.898438 -24.933594 6.199219 -25.382812 C 6.558594 -25.910156 5.054688 -25.890625 4.847656 -25.757812 C 4.414062 -25.195312 4.492188 -23.957031 5.335938 -23.390625 C 6.613281 -22.527344 7.761719 -22.996094 8.90625 -24.144531 Z M 8.90625 -24.144531 "/></g></g></g><g fill="#ffcf00" fill-opacity="1"><g transform="translate(202.392649, 45.29597)"><g><path d="M 15.050781 -26.453125 C 14.675781 -23.878906 14.035156 -21.402344 13 -19.03125 C 12.511719 -17.90625 11.96875 -16.816406 11.273438 -15.800781 C 11.066406 -15.464844 10.824219 -15.144531 10.558594 -14.824219 C 10.484375 -15.070312 10.410156 -15.332031 10.390625 -15.59375 C 9.375 -20.761719 9.84375 -26.171875 10.238281 -31.394531 C 10.296875 -32.222656 8.832031 -32.46875 7.761719 -32.183594 C 7.703125 -32.261719 7.664062 -32.316406 7.609375 -32.375 C 6.292969 -33.820312 3.703125 -33.6875 2.253906 -32.523438 C 0.355469 -31.019531 -0.507812 -27.976562 -1.109375 -25.757812 C -1.804688 -23.167969 -2.125 -20.515625 -1.972656 -17.847656 C -1.859375 -15.820312 -1.617188 -13.113281 0.5625 -12.25 C 3.042969 -11.292969 4.621094 -13.152344 5.542969 -15.199219 C 5.882812 -15.953125 6.179688 -16.742188 6.425781 -17.546875 C 6.613281 -15.5 7.160156 -13.394531 9 -12.890625 C 12.023438 -12.0625 13.019531 -14.84375 13.828125 -17.117188 C 14.898438 -20.105469 15.5 -23.28125 15.875 -26.417969 C 15.894531 -26.585938 15.070312 -26.640625 15.050781 -26.453125 Z M 4.808594 -21.605469 C 4.433594 -20.234375 4.039062 -18.863281 3.550781 -17.53125 C 3.34375 -16.984375 2.800781 -15.386719 2.140625 -14.46875 C 1.917969 -15.070312 1.785156 -15.839844 1.746094 -16.140625 C 1.578125 -17.152344 1.539062 -18.207031 1.539062 -19.238281 C 1.539062 -21.550781 1.878906 -23.878906 2.554688 -26.097656 C 2.855469 -27.113281 3.230469 -28.109375 3.683594 -29.085938 C 3.890625 -29.554688 4.113281 -30.023438 4.359375 -30.457031 C 4.507812 -30.71875 4.660156 -31 4.847656 -31.285156 C 4.960938 -31.132812 5.089844 -30.984375 5.1875 -30.832031 C 5.46875 -30.4375 5.675781 -29.988281 5.917969 -29.574219 C 6.050781 -29.328125 6.164062 -29.085938 6.257812 -28.839844 C 5.863281 -26.417969 5.484375 -23.972656 4.808594 -21.605469 Z M 4.808594 -21.605469 "/></g></g></g></svg>